<?xml version="1.0" encoding="utf-8" standalone="no"?>
<!DOCTYPE svg PUBLIC "-//W3C//DTD SVG 1.1//EN"
  "http://www.w3.org/Graphics/SVG/1.1/DTD/svg11.dtd">
<!-- Created with matplotlib (https://matplotlib.org/) -->
<svg height="288pt" version="1.1" viewBox="0 0 432 288" width="432pt" xmlns="http://www.w3.org/2000/svg" xmlns:xlink="http://www.w3.org/1999/xlink">
 <defs>
  <style type="text/css">
*{stroke-linecap:butt;stroke-linejoin:round;}
  </style>
 </defs>
 <g id="figure_1">
  <g id="patch_1">
   <path d="M 0 288 
L 432 288 
L 432 0 
L 0 0 
z
" style="fill:#ffffff;"/>
  </g>
  <g id="axes_1">
   <g id="patch_2">
    <path d="M 54 252 
L 388.8 252 
L 388.8 34.56 
L 54 34.56 
z
"/>
   </g>
   <g id="matplotlib.axis_1">
    <g id="xtick_1">
     <g id="line2d_1">
      <defs>
       <path d="M 0 0 
L 0 6 
" id="m2f1059a0fa" style="stroke:#262626;stroke-width:1.25;"/>
      </defs>
      <g>
       <use style="fill:#262626;stroke:#262626;stroke-width:1.25;" x="84.436364" xlink:href="#m2f1059a0fa" y="252"/>
      </g>
     </g>
     <g id="text_1">
      <!-- −200 -->
      <defs>
       <path d="M 52.828125 31.203125 
L 5.5625 31.203125 
L 5.5625 39.40625 
L 52.828125 39.40625 
z
" id="ArialMT-8722"/>
       <path d="M 50.34375 8.453125 
L 50.34375 0 
L 3.03125 0 
Q 2.9375 3.171875 4.046875 6.109375 
Q 5.859375 10.9375 9.828125 15.625 
Q 13.8125 20.3125 21.34375 26.46875 
Q 33.015625 36.03125 37.109375 41.625 
Q 41.21875 47.21875 41.21875 52.203125 
Q 41.21875 57.421875 37.46875 61 
Q 33.734375 64.59375 27.734375 64.59375 
Q 21.390625 64.59375 17.578125 60.78125 
Q 13.765625 56.984375 13.71875 50.25 
L 4.6875 51.171875 
Q 5.609375 61.28125 11.65625 66.578125 
Q 17.71875 71.875 27.9375 71.875 
Q 38.234375 71.875 44.234375 66.15625 
Q 50.25 60.453125 50.25 52 
Q 50.25 47.703125 48.484375 43.546875 
Q 46.734375 39.40625 42.65625 34.8125 
Q 38.578125 30.21875 29.109375 22.21875 
Q 21.1875 15.578125 18.9375 13.203125 
Q 16.703125 10.84375 15.234375 8.453125 
z
" id="ArialMT-50"/>
       <path d="M 4.15625 35.296875 
Q 4.15625 48 6.765625 55.734375 
Q 9.375 63.484375 14.515625 67.671875 
Q 19.671875 71.875 27.484375 71.875 
Q 33.25 71.875 37.59375 69.546875 
Q 41.9375 67.234375 44.765625 62.859375 
Q 47.609375 58.5 49.21875 52.21875 
Q 50.828125 45.953125 50.828125 35.296875 
Q 50.828125 22.703125 48.234375 14.96875 
Q 45.65625 7.234375 40.5 3 
Q 35.359375 -1.21875 27.484375 -1.21875 
Q 17.140625 -1.21875 11.234375 6.203125 
Q 4.15625 15.140625 4.15625 35.296875 
z
M 13.1875 35.296875 
Q 13.1875 17.671875 17.3125 11.828125 
Q 21.4375 6 27.484375 6 
Q 33.546875 6 37.671875 11.859375 
Q 41.796875 17.71875 41.796875 35.296875 
Q 41.796875 52.984375 37.671875 58.78125 
Q 33.546875 64.59375 27.390625 64.59375 
Q 21.34375 64.59375 17.71875 59.46875 
Q 13.1875 52.9375 13.1875 35.296875 
z
" id="ArialMT-48"/>
      </defs>
      <g style="fill:#11f806;" transform="translate(72.048473 269.373594)scale(0.11 -0.11)">
       <use xlink:href="#ArialMT-8722"/>
       <use x="58.398438" xlink:href="#ArialMT-50"/>
       <use x="114.013672" xlink:href="#ArialMT-48"/>
       <use x="169.628906" xlink:href="#ArialMT-48"/>
      </g>
     </g>
    </g>
    <g id="xtick_2">
     <g id="line2d_2">
      <g>
       <use style="fill:#262626;stroke:#262626;stroke-width:1.25;" x="145.309091" xlink:href="#m2f1059a0fa" y="252"/>
      </g>
     </g>
     <g id="text_2">
      <!-- −100 -->
      <defs>
       <path d="M 37.25 0 
L 28.46875 0 
L 28.46875 56 
Q 25.296875 52.984375 20.140625 49.953125 
Q 14.984375 46.921875 10.890625 45.40625 
L 10.890625 53.90625 
Q 18.265625 57.375 23.78125 62.296875 
Q 29.296875 67.234375 31.59375 71.875 
L 37.25 71.875 
z
" id="ArialMT-49"/>
      </defs>
      <g style="fill:#11f806;" transform="translate(132.9212 269.373594)scale(0.11 -0.11)">
       <use xlink:href="#ArialMT-8722"/>
       <use x="58.398438" xlink:href="#ArialMT-49"/>
       <use x="114.013672" xlink:href="#ArialMT-48"/>
       <use x="169.628906" xlink:href="#ArialMT-48"/>
      </g>
     </g>
    </g>
    <g id="xtick_3">
     <g id="line2d_3">
      <g>
       <use style="fill:#262626;stroke:#262626;stroke-width:1.25;" x="206.181818" xlink:href="#m2f1059a0fa" y="252"/>
      </g>
     </g>
     <g id="text_3">
      <!-- 0 -->
      <g style="fill:#11f806;" transform="translate(203.123303 269.373594)scale(0.11 -0.11)">
       <use xlink:href="#ArialMT-48"/>
      </g>
     </g>
    </g>
    <g id="xtick_4">
     <g id="line2d_4">
      <g>
       <use style="fill:#262626;stroke:#262626;stroke-width:1.25;" x="267.054545" xlink:href="#m2f1059a0fa" y="252"/>
      </g>
     </g>
     <g id="text_4">
      <!-- 100 -->
      <g style="fill:#11f806;" transform="translate(257.878999 269.373594)scale(0.11 -0.11)">
       <use xlink:href="#ArialMT-49"/>
       <use x="55.615234" xlink:href="#ArialMT-48"/>
       <use x="111.230469" xlink:href="#ArialMT-48"/>
      </g>
     </g>
    </g>
    <g id="xtick_5">
     <g id="line2d_5">
      <g>
       <use style="fill:#262626;stroke:#262626;stroke-width:1.25;" x="327.927273" xlink:href="#m2f1059a0fa" y="252"/>
      </g>
     </g>
     <g id="text_5">
      <!-- 200 -->
      <g style="fill:#11f806;" transform="translate(318.751726 269.373594)scale(0.11 -0.11)">
       <use xlink:href="#ArialMT-50"/>
       <use x="55.615234" xlink:href="#ArialMT-48"/>
       <use x="111.230469" xlink:href="#ArialMT-48"/>
      </g>
     </g>
    </g>
    <g id="xtick_6">
     <g id="line2d_6">
      <g>
       <use style="fill:#262626;stroke:#262626;stroke-width:1.25;" x="388.8" xlink:href="#m2f1059a0fa" y="252"/>
      </g>
     </g>
     <g id="text_6">
      <!-- 300 -->
      <defs>
       <path d="M 4.203125 18.890625 
L 12.984375 20.0625 
Q 14.5 12.59375 18.140625 9.296875 
Q 21.78125 6 27 6 
Q 33.203125 6 37.46875 10.296875 
Q 41.75 14.59375 41.75 20.953125 
Q 41.75 27 37.796875 30.921875 
Q 33.84375 34.859375 27.734375 34.859375 
Q 25.25 34.859375 21.53125 33.890625 
L 22.515625 41.609375 
Q 23.390625 41.5 23.921875 41.5 
Q 29.546875 41.5 34.03125 44.421875 
Q 38.53125 47.359375 38.53125 53.46875 
Q 38.53125 58.296875 35.25 61.46875 
Q 31.984375 64.65625 26.8125 64.65625 
Q 21.6875 64.65625 18.265625 61.421875 
Q 14.84375 58.203125 13.875 51.765625 
L 5.078125 53.328125 
Q 6.6875 62.15625 12.390625 67.015625 
Q 18.109375 71.875 26.609375 71.875 
Q 32.46875 71.875 37.390625 69.359375 
Q 42.328125 66.84375 44.9375 62.5 
Q 47.5625 58.15625 47.5625 53.265625 
Q 47.5625 48.640625 45.0625 44.828125 
Q 42.578125 41.015625 37.703125 38.765625 
Q 44.046875 37.3125 47.5625 32.6875 
Q 51.078125 28.078125 51.078125 21.140625 
Q 51.078125 11.765625 44.234375 5.25 
Q 37.40625 -1.265625 26.953125 -1.265625 
Q 17.53125 -1.265625 11.296875 4.34375 
Q 5.078125 9.96875 4.203125 18.890625 
z
" id="ArialMT-51"/>
      </defs>
      <g style="fill:#11f806;" transform="translate(379.624453 269.373594)scale(0.11 -0.11)">
       <use xlink:href="#ArialMT-51"/>
       <use x="55.615234" xlink:href="#ArialMT-48"/>
       <use x="111.230469" xlink:href="#ArialMT-48"/>
      </g>
     </g>
    </g>
    <g id="text_7">
     <!-- Industrial Output -->
     <defs>
      <path d="M 6.84375 0 
L 6.84375 71.578125 
L 21.296875 71.578125 
L 21.296875 0 
z
" id="Arial-BoldMT-73"/>
      <path d="M 54.34375 0 
L 40.625 0 
L 40.625 26.46875 
Q 40.625 34.859375 39.75 37.328125 
Q 38.875 39.796875 36.890625 41.15625 
Q 34.90625 42.53125 32.125 42.53125 
Q 28.5625 42.53125 25.734375 40.578125 
Q 22.90625 38.625 21.84375 35.390625 
Q 20.796875 32.171875 20.796875 23.484375 
L 20.796875 0 
L 7.078125 0 
L 7.078125 51.859375 
L 19.828125 51.859375 
L 19.828125 44.234375 
Q 26.609375 53.03125 36.921875 53.03125 
Q 41.453125 53.03125 45.203125 51.390625 
Q 48.96875 49.75 50.890625 47.203125 
Q 52.828125 44.671875 53.578125 41.453125 
Q 54.34375 38.234375 54.34375 32.234375 
z
" id="Arial-BoldMT-110"/>
      <path d="M 54.734375 0 
L 42 0 
L 42 7.625 
Q 38.8125 3.171875 34.484375 1 
Q 30.171875 -1.171875 25.78125 -1.171875 
Q 16.84375 -1.171875 10.46875 6.03125 
Q 4.109375 13.234375 4.109375 26.125 
Q 4.109375 39.3125 10.296875 46.171875 
Q 16.5 53.03125 25.984375 53.03125 
Q 34.671875 53.03125 41.015625 45.796875 
L 41.015625 71.578125 
L 54.734375 71.578125 
z
M 18.109375 27.046875 
Q 18.109375 18.75 20.40625 15.046875 
Q 23.734375 9.671875 29.6875 9.671875 
Q 34.421875 9.671875 37.734375 13.6875 
Q 41.0625 17.71875 41.0625 25.734375 
Q 41.0625 34.671875 37.84375 38.59375 
Q 34.625 42.53125 29.59375 42.53125 
Q 24.703125 42.53125 21.40625 38.640625 
Q 18.109375 34.765625 18.109375 27.046875 
z
" id="Arial-BoldMT-100"/>
      <path d="M 41.3125 0 
L 41.3125 7.765625 
Q 38.484375 3.609375 33.859375 1.21875 
Q 29.25 -1.171875 24.125 -1.171875 
Q 18.890625 -1.171875 14.734375 1.125 
Q 10.59375 3.421875 8.734375 7.5625 
Q 6.890625 11.71875 6.890625 19.046875 
L 6.890625 51.859375 
L 20.609375 51.859375 
L 20.609375 28.03125 
Q 20.609375 17.09375 21.359375 14.625 
Q 22.125 12.15625 24.125 10.71875 
Q 26.125 9.28125 29.203125 9.28125 
Q 32.71875 9.28125 35.5 11.203125 
Q 38.28125 13.140625 39.296875 15.984375 
Q 40.328125 18.84375 40.328125 29.984375 
L 40.328125 51.859375 
L 54.046875 51.859375 
L 54.046875 0 
z
" id="Arial-BoldMT-117"/>
      <path d="M 2.34375 14.796875 
L 16.109375 16.890625 
Q 17 12.890625 19.671875 10.8125 
Q 22.359375 8.734375 27.203125 8.734375 
Q 32.515625 8.734375 35.203125 10.6875 
Q 37.015625 12.0625 37.015625 14.359375 
Q 37.015625 15.921875 36.03125 16.9375 
Q 35.015625 17.921875 31.453125 18.75 
Q 14.84375 22.40625 10.40625 25.4375 
Q 4.25 29.640625 4.25 37.109375 
Q 4.25 43.84375 9.5625 48.4375 
Q 14.890625 53.03125 26.078125 53.03125 
Q 36.71875 53.03125 41.890625 49.5625 
Q 47.078125 46.09375 49.03125 39.3125 
L 36.078125 36.921875 
Q 35.25 39.9375 32.921875 41.546875 
Q 30.609375 43.171875 26.3125 43.171875 
Q 20.90625 43.171875 18.5625 41.65625 
Q 17 40.578125 17 38.875 
Q 17 37.40625 18.359375 36.375 
Q 20.21875 35.015625 31.171875 32.515625 
Q 42.140625 30.03125 46.484375 26.421875 
Q 50.78125 22.75 50.78125 16.21875 
Q 50.78125 9.078125 44.828125 3.953125 
Q 38.875 -1.171875 27.203125 -1.171875 
Q 16.609375 -1.171875 10.421875 3.125 
Q 4.25 7.421875 2.34375 14.796875 
z
" id="Arial-BoldMT-115"/>
      <path d="M 30.953125 51.859375 
L 30.953125 40.921875 
L 21.578125 40.921875 
L 21.578125 20.015625 
Q 21.578125 13.671875 21.84375 12.625 
Q 22.125 11.578125 23.078125 10.890625 
Q 24.03125 10.203125 25.390625 10.203125 
Q 27.296875 10.203125 30.90625 11.53125 
L 32.078125 0.875 
Q 27.296875 -1.171875 21.234375 -1.171875 
Q 17.53125 -1.171875 14.546875 0.0625 
Q 11.578125 1.3125 10.1875 3.296875 
Q 8.796875 5.28125 8.25 8.640625 
Q 7.8125 11.03125 7.8125 18.3125 
L 7.8125 40.921875 
L 1.515625 40.921875 
L 1.515625 51.859375 
L 7.8125 51.859375 
L 7.8125 62.15625 
L 21.578125 70.171875 
L 21.578125 51.859375 
z
" id="Arial-BoldMT-116"/>
      <path d="M 20.3125 0 
L 6.59375 0 
L 6.59375 51.859375 
L 19.34375 51.859375 
L 19.34375 44.484375 
Q 22.609375 49.703125 25.21875 51.359375 
Q 27.828125 53.03125 31.15625 53.03125 
Q 35.84375 53.03125 40.1875 50.4375 
L 35.9375 38.484375 
Q 32.46875 40.71875 29.5 40.71875 
Q 26.609375 40.71875 24.609375 39.125 
Q 22.609375 37.546875 21.453125 33.390625 
Q 20.3125 29.25 20.3125 16.015625 
z
" id="Arial-BoldMT-114"/>
      <path d="M 7.171875 58.890625 
L 7.171875 71.578125 
L 20.90625 71.578125 
L 20.90625 58.890625 
z
M 7.171875 0 
L 7.171875 51.859375 
L 20.90625 51.859375 
L 20.90625 0 
z
" id="Arial-BoldMT-105"/>
      <path d="M 17.4375 36.03125 
L 4.984375 38.28125 
Q 7.078125 45.796875 12.203125 49.40625 
Q 17.328125 53.03125 27.4375 53.03125 
Q 36.625 53.03125 41.109375 50.859375 
Q 45.609375 48.6875 47.4375 45.34375 
Q 49.265625 42 49.265625 33.0625 
L 49.125 17.046875 
Q 49.125 10.203125 49.78125 6.953125 
Q 50.4375 3.71875 52.25 0 
L 38.671875 0 
Q 38.140625 1.375 37.359375 4.046875 
Q 37.015625 5.28125 36.859375 5.671875 
Q 33.34375 2.25 29.34375 0.53125 
Q 25.34375 -1.171875 20.796875 -1.171875 
Q 12.796875 -1.171875 8.171875 3.171875 
Q 3.5625 7.515625 3.5625 14.15625 
Q 3.5625 18.5625 5.65625 22 
Q 7.765625 25.4375 11.546875 27.265625 
Q 15.328125 29.109375 22.46875 30.46875 
Q 32.078125 32.28125 35.796875 33.84375 
L 35.796875 35.203125 
Q 35.796875 39.15625 33.84375 40.84375 
Q 31.890625 42.53125 26.46875 42.53125 
Q 22.796875 42.53125 20.75 41.09375 
Q 18.703125 39.65625 17.4375 36.03125 
z
M 35.796875 24.90625 
Q 33.15625 24.03125 27.4375 22.796875 
Q 21.734375 21.578125 19.96875 20.40625 
Q 17.28125 18.5 17.28125 15.578125 
Q 17.28125 12.703125 19.421875 10.59375 
Q 21.578125 8.5 24.90625 8.5 
Q 28.609375 8.5 31.984375 10.9375 
Q 34.46875 12.796875 35.25 15.484375 
Q 35.796875 17.234375 35.796875 22.171875 
z
" id="Arial-BoldMT-97"/>
      <path d="M 7.171875 0 
L 7.171875 71.578125 
L 20.90625 71.578125 
L 20.90625 0 
z
" id="Arial-BoldMT-108"/>
      <path id="Arial-BoldMT-32"/>
      <path d="M 4.34375 35.359375 
Q 4.34375 46.296875 7.625 53.71875 
Q 10.0625 59.1875 14.28125 63.53125 
Q 18.5 67.875 23.53125 69.96875 
Q 30.21875 72.796875 38.96875 72.796875 
Q 54.78125 72.796875 64.28125 62.984375 
Q 73.78125 53.171875 73.78125 35.6875 
Q 73.78125 18.359375 64.359375 8.5625 
Q 54.9375 -1.21875 39.15625 -1.21875 
Q 23.1875 -1.21875 13.765625 8.515625 
Q 4.34375 18.265625 4.34375 35.359375 
z
M 19.234375 35.84375 
Q 19.234375 23.6875 24.84375 17.40625 
Q 30.46875 11.140625 39.109375 11.140625 
Q 47.75 11.140625 53.296875 17.359375 
Q 58.84375 23.578125 58.84375 36.03125 
Q 58.84375 48.34375 53.4375 54.390625 
Q 48.046875 60.453125 39.109375 60.453125 
Q 30.171875 60.453125 24.703125 54.3125 
Q 19.234375 48.1875 19.234375 35.84375 
z
" id="Arial-BoldMT-79"/>
      <path d="M 6.78125 51.859375 
L 19.578125 51.859375 
L 19.578125 44.234375 
Q 22.078125 48.140625 26.3125 50.578125 
Q 30.5625 53.03125 35.75 53.03125 
Q 44.78125 53.03125 51.078125 45.953125 
Q 57.375 38.875 57.375 26.21875 
Q 57.375 13.234375 51.015625 6.03125 
Q 44.671875 -1.171875 35.640625 -1.171875 
Q 31.34375 -1.171875 27.84375 0.53125 
Q 24.359375 2.25 20.515625 6.390625 
L 20.515625 -19.734375 
L 6.78125 -19.734375 
z
M 20.359375 26.8125 
Q 20.359375 18.0625 23.828125 13.890625 
Q 27.296875 9.71875 32.28125 9.71875 
Q 37.0625 9.71875 40.234375 13.546875 
Q 43.40625 17.390625 43.40625 26.125 
Q 43.40625 34.28125 40.125 38.234375 
Q 36.859375 42.1875 32.03125 42.1875 
Q 27 42.1875 23.671875 38.296875 
Q 20.359375 34.421875 20.359375 26.8125 
z
" id="Arial-BoldMT-112"/>
     </defs>
     <g style="fill:#11f806;" transform="translate(173.075625 284.295469)scale(0.12 -0.12)">
      <use xlink:href="#Arial-BoldMT-73"/>
      <use x="27.783203" xlink:href="#Arial-BoldMT-110"/>
      <use x="88.867188" xlink:href="#Arial-BoldMT-100"/>
      <use x="149.951172" xlink:href="#Arial-BoldMT-117"/>
      <use x="211.035156" xlink:href="#Arial-BoldMT-115"/>
      <use x="266.650391" xlink:href="#Arial-BoldMT-116"/>
      <use x="299.951172" xlink:href="#Arial-BoldMT-114"/>
      <use x="338.867188" xlink:href="#Arial-BoldMT-105"/>
      <use x="366.650391" xlink:href="#Arial-BoldMT-97"/>
      <use x="422.265625" xlink:href="#Arial-BoldMT-108"/>
      <use x="450.048828" xlink:href="#Arial-BoldMT-32"/>
      <use x="477.832031" xlink:href="#Arial-BoldMT-79"/>
      <use x="555.615234" xlink:href="#Arial-BoldMT-117"/>
      <use x="616.699219" xlink:href="#Arial-BoldMT-116"/>
      <use x="650" xlink:href="#Arial-BoldMT-112"/>
      <use x="711.083984" xlink:href="#Arial-BoldMT-117"/>
      <use x="772.167969" xlink:href="#Arial-BoldMT-116"/>
     </g>
    </g>
   </g>
   <g id="matplotlib.axis_2">
    <g id="ytick_1">
     <g id="line2d_7">
      <defs>
       <path d="M 0 0 
L -6 0 
" id="md4bd22c3f3" style="stroke:#262626;stroke-width:1.25;"/>
      </defs>
      <g>
       <use style="fill:#262626;stroke:#262626;stroke-width:1.25;" x="54" xlink:href="#md4bd22c3f3" y="252"/>
      </g>
     </g>
     <g id="text_8">
      <!-- 0 -->
      <g style="fill:#11f806;" transform="translate(38.382969 255.936797)scale(0.11 -0.11)">
       <use xlink:href="#ArialMT-48"/>
      </g>
     </g>
    </g>
    <g id="ytick_2">
     <g id="line2d_8">
      <g>
       <use style="fill:#262626;stroke:#262626;stroke-width:1.25;" x="54" xlink:href="#md4bd22c3f3" y="208.512"/>
      </g>
     </g>
     <g id="text_9">
      <!-- 20 -->
      <g style="fill:#11f806;" transform="translate(32.265937 212.448797)scale(0.11 -0.11)">
       <use xlink:href="#ArialMT-50"/>
       <use x="55.615234" xlink:href="#ArialMT-48"/>
      </g>
     </g>
    </g>
    <g id="ytick_3">
     <g id="line2d_9">
      <g>
       <use style="fill:#262626;stroke:#262626;stroke-width:1.25;" x="54" xlink:href="#md4bd22c3f3" y="165.024"/>
      </g>
     </g>
     <g id="text_10">
      <!-- 40 -->
      <defs>
       <path d="M 32.328125 0 
L 32.328125 17.140625 
L 1.265625 17.140625 
L 1.265625 25.203125 
L 33.9375 71.578125 
L 41.109375 71.578125 
L 41.109375 25.203125 
L 50.78125 25.203125 
L 50.78125 17.140625 
L 41.109375 17.140625 
L 41.109375 0 
z
M 32.328125 25.203125 
L 32.328125 57.46875 
L 9.90625 25.203125 
z
" id="ArialMT-52"/>
      </defs>
      <g style="fill:#11f806;" transform="translate(32.265937 168.960797)scale(0.11 -0.11)">
       <use xlink:href="#ArialMT-52"/>
       <use x="55.615234" xlink:href="#ArialMT-48"/>
      </g>
     </g>
    </g>
    <g id="ytick_4">
     <g id="line2d_10">
      <g>
       <use style="fill:#262626;stroke:#262626;stroke-width:1.25;" x="54" xlink:href="#md4bd22c3f3" y="121.536"/>
      </g>
     </g>
     <g id="text_11">
      <!-- 60 -->
      <defs>
       <path d="M 49.75 54.046875 
L 41.015625 53.375 
Q 39.84375 58.546875 37.703125 60.890625 
Q 34.125 64.65625 28.90625 64.65625 
Q 24.703125 64.65625 21.53125 62.3125 
Q 17.390625 59.28125 14.984375 53.46875 
Q 12.59375 47.65625 12.5 36.921875 
Q 15.671875 41.75 20.265625 44.09375 
Q 24.859375 46.4375 29.890625 46.4375 
Q 38.671875 46.4375 44.84375 39.96875 
Q 51.03125 33.5 51.03125 23.25 
Q 51.03125 16.5 48.125 10.71875 
Q 45.21875 4.9375 40.140625 1.859375 
Q 35.0625 -1.21875 28.609375 -1.21875 
Q 17.625 -1.21875 10.6875 6.859375 
Q 3.765625 14.9375 3.765625 33.5 
Q 3.765625 54.25 11.421875 63.671875 
Q 18.109375 71.875 29.4375 71.875 
Q 37.890625 71.875 43.28125 67.140625 
Q 48.6875 62.40625 49.75 54.046875 
z
M 13.875 23.1875 
Q 13.875 18.65625 15.796875 14.5 
Q 17.71875 10.359375 21.1875 8.171875 
Q 24.65625 6 28.46875 6 
Q 34.03125 6 38.03125 10.484375 
Q 42.046875 14.984375 42.046875 22.703125 
Q 42.046875 30.125 38.078125 34.390625 
Q 34.125 38.671875 28.125 38.671875 
Q 22.171875 38.671875 18.015625 34.390625 
Q 13.875 30.125 13.875 23.1875 
z
" id="ArialMT-54"/>
      </defs>
      <g style="fill:#11f806;" transform="translate(32.265937 125.472797)scale(0.11 -0.11)">
       <use xlink:href="#ArialMT-54"/>
       <use x="55.615234" xlink:href="#ArialMT-48"/>
      </g>
     </g>
    </g>
    <g id="ytick_5">
     <g id="line2d_11">
      <g>
       <use style="fill:#262626;stroke:#262626;stroke-width:1.25;" x="54" xlink:href="#md4bd22c3f3" y="78.048"/>
      </g>
     </g>
     <g id="text_12">
      <!-- 80 -->
      <defs>
       <path d="M 17.671875 38.8125 
Q 12.203125 40.828125 9.5625 44.53125 
Q 6.9375 48.25 6.9375 53.421875 
Q 6.9375 61.234375 12.546875 66.546875 
Q 18.171875 71.875 27.484375 71.875 
Q 36.859375 71.875 42.578125 66.421875 
Q 48.296875 60.984375 48.296875 53.171875 
Q 48.296875 48.1875 45.671875 44.5 
Q 43.0625 40.828125 37.75 38.8125 
Q 44.34375 36.671875 47.78125 31.875 
Q 51.21875 27.09375 51.21875 20.453125 
Q 51.21875 11.28125 44.71875 5.03125 
Q 38.234375 -1.21875 27.640625 -1.21875 
Q 17.046875 -1.21875 10.546875 5.046875 
Q 4.046875 11.328125 4.046875 20.703125 
Q 4.046875 27.6875 7.59375 32.390625 
Q 11.140625 37.109375 17.671875 38.8125 
z
M 15.921875 53.71875 
Q 15.921875 48.640625 19.1875 45.40625 
Q 22.46875 42.1875 27.6875 42.1875 
Q 32.765625 42.1875 36.015625 45.375 
Q 39.265625 48.578125 39.265625 53.21875 
Q 39.265625 58.0625 35.90625 61.359375 
Q 32.5625 64.65625 27.59375 64.65625 
Q 22.5625 64.65625 19.234375 61.421875 
Q 15.921875 58.203125 15.921875 53.71875 
z
M 13.09375 20.65625 
Q 13.09375 16.890625 14.875 13.375 
Q 16.65625 9.859375 20.171875 7.921875 
Q 23.6875 6 27.734375 6 
Q 34.03125 6 38.125 10.046875 
Q 42.234375 14.109375 42.234375 20.359375 
Q 42.234375 26.703125 38.015625 30.859375 
Q 33.796875 35.015625 27.4375 35.015625 
Q 21.234375 35.015625 17.15625 30.90625 
Q 13.09375 26.8125 13.09375 20.65625 
z
" id="ArialMT-56"/>
      </defs>
      <g style="fill:#11f806;" transform="translate(32.265937 81.984797)scale(0.11 -0.11)">
       <use xlink:href="#ArialMT-56"/>
       <use x="55.615234" xlink:href="#ArialMT-48"/>
      </g>
     </g>
    </g>
    <g id="ytick_6">
     <g id="line2d_12">
      <g>
       <use style="fill:#262626;stroke:#262626;stroke-width:1.25;" x="54" xlink:href="#md4bd22c3f3" y="34.56"/>
      </g>
     </g>
     <g id="text_13">
      <!-- 100 -->
      <g style="fill:#11f806;" transform="translate(26.148906 38.496797)scale(0.11 -0.11)">
       <use xlink:href="#ArialMT-49"/>
       <use x="55.615234" xlink:href="#ArialMT-48"/>
       <use x="111.230469" xlink:href="#ArialMT-48"/>
      </g>
     </g>
    </g>
    <g id="text_14">
     <!-- Average Temperature (F) -->
     <defs>
      <path d="M 71.828125 0 
L 56.109375 0 
L 49.859375 16.265625 
L 21.234375 16.265625 
L 15.328125 0 
L 0 0 
L 27.875 71.578125 
L 43.171875 71.578125 
z
M 45.21875 28.328125 
L 35.359375 54.890625 
L 25.6875 28.328125 
z
" id="Arial-BoldMT-65"/>
      <path d="M 21.4375 0 
L 0.53125 51.859375 
L 14.9375 51.859375 
L 24.703125 25.390625 
L 27.546875 16.546875 
Q 28.65625 19.921875 28.953125 21 
Q 29.640625 23.1875 30.421875 25.390625 
L 40.28125 51.859375 
L 54.390625 51.859375 
L 33.796875 0 
z
" id="Arial-BoldMT-118"/>
      <path d="M 37.203125 16.5 
L 50.875 14.203125 
Q 48.25 6.6875 42.546875 2.75 
Q 36.859375 -1.171875 28.328125 -1.171875 
Q 14.796875 -1.171875 8.296875 7.671875 
Q 3.171875 14.75 3.171875 25.53125 
Q 3.171875 38.421875 9.90625 45.71875 
Q 16.65625 53.03125 26.953125 53.03125 
Q 38.53125 53.03125 45.21875 45.390625 
Q 51.90625 37.75 51.609375 21.96875 
L 17.234375 21.96875 
Q 17.390625 15.875 20.5625 12.46875 
Q 23.734375 9.078125 28.46875 9.078125 
Q 31.6875 9.078125 33.875 10.828125 
Q 36.078125 12.59375 37.203125 16.5 
z
M 37.984375 30.375 
Q 37.84375 36.328125 34.90625 39.421875 
Q 31.984375 42.53125 27.78125 42.53125 
Q 23.296875 42.53125 20.359375 39.265625 
Q 17.4375 35.984375 17.484375 30.375 
z
" id="Arial-BoldMT-101"/>
      <path d="M 5.90625 -3.421875 
L 21.578125 -5.328125 
Q 21.96875 -8.0625 23.390625 -9.078125 
Q 25.34375 -10.546875 29.546875 -10.546875 
Q 34.90625 -10.546875 37.59375 -8.9375 
Q 39.40625 -7.859375 40.328125 -5.46875 
Q 40.96875 -3.765625 40.96875 0.828125 
L 40.96875 8.40625 
Q 34.8125 0 25.4375 0 
Q 14.984375 0 8.890625 8.84375 
Q 4.109375 15.828125 4.109375 26.21875 
Q 4.109375 39.265625 10.375 46.140625 
Q 16.65625 53.03125 25.984375 53.03125 
Q 35.59375 53.03125 41.84375 44.578125 
L 41.84375 51.859375 
L 54.6875 51.859375 
L 54.6875 5.328125 
Q 54.6875 -3.859375 53.171875 -8.390625 
Q 51.65625 -12.9375 48.921875 -15.515625 
Q 46.1875 -18.109375 41.625 -19.578125 
Q 37.0625 -21.046875 30.078125 -21.046875 
Q 16.890625 -21.046875 11.375 -16.53125 
Q 5.859375 -12.015625 5.859375 -5.078125 
Q 5.859375 -4.390625 5.90625 -3.421875 
z
M 18.171875 27 
Q 18.171875 18.75 21.359375 14.90625 
Q 24.5625 11.078125 29.25 11.078125 
Q 34.28125 11.078125 37.75 15.015625 
Q 41.21875 18.953125 41.21875 26.65625 
Q 41.21875 34.71875 37.890625 38.625 
Q 34.578125 42.53125 29.5 42.53125 
Q 24.5625 42.53125 21.359375 38.6875 
Q 18.171875 34.859375 18.171875 27 
z
" id="Arial-BoldMT-103"/>
      <path d="M 23.390625 0 
L 23.390625 59.46875 
L 2.15625 59.46875 
L 2.15625 71.578125 
L 59.03125 71.578125 
L 59.03125 59.46875 
L 37.84375 59.46875 
L 37.84375 0 
z
" id="Arial-BoldMT-84"/>
      <path d="M 6.15625 51.859375 
L 18.796875 51.859375 
L 18.796875 44.78125 
Q 25.59375 53.03125 34.96875 53.03125 
Q 39.9375 53.03125 43.59375 50.96875 
Q 47.265625 48.921875 49.609375 44.78125 
Q 53.03125 48.921875 56.984375 50.96875 
Q 60.9375 53.03125 65.4375 53.03125 
Q 71.140625 53.03125 75.09375 50.703125 
Q 79.046875 48.390625 81 43.890625 
Q 82.421875 40.578125 82.421875 33.15625 
L 82.421875 0 
L 68.703125 0 
L 68.703125 29.640625 
Q 68.703125 37.359375 67.28125 39.59375 
Q 65.375 42.53125 61.421875 42.53125 
Q 58.546875 42.53125 56 40.765625 
Q 53.46875 39.015625 52.34375 35.625 
Q 51.21875 32.234375 51.21875 24.90625 
L 51.21875 0 
L 37.5 0 
L 37.5 28.421875 
Q 37.5 35.984375 36.765625 38.171875 
Q 36.03125 40.375 34.484375 41.453125 
Q 32.953125 42.53125 30.328125 42.53125 
Q 27.15625 42.53125 24.609375 40.8125 
Q 22.078125 39.109375 20.96875 35.890625 
Q 19.875 32.671875 19.875 25.203125 
L 19.875 0 
L 6.15625 0 
z
" id="Arial-BoldMT-109"/>
      <path d="M 29.9375 -21.046875 
L 20.515625 -21.046875 
Q 13.03125 -9.765625 9.125 2.390625 
Q 5.21875 14.546875 5.21875 25.921875 
Q 5.21875 40.046875 10.0625 52.640625 
Q 14.265625 63.578125 20.703125 72.796875 
L 30.078125 72.796875 
Q 23.390625 58.015625 20.875 47.625 
Q 18.359375 37.25 18.359375 25.640625 
Q 18.359375 17.625 19.84375 9.21875 
Q 21.34375 0.828125 23.921875 -6.734375 
Q 25.640625 -11.71875 29.9375 -21.046875 
z
" id="Arial-BoldMT-40"/>
      <path d="M 7.375 0 
L 7.375 71.578125 
L 56.453125 71.578125 
L 56.453125 59.46875 
L 21.828125 59.46875 
L 21.828125 42.53125 
L 51.703125 42.53125 
L 51.703125 30.421875 
L 21.828125 30.421875 
L 21.828125 0 
z
" id="Arial-BoldMT-70"/>
      <path d="M 3.375 -21.046875 
Q 7.421875 -12.359375 9.078125 -7.71875 
Q 10.75 -3.078125 12.15625 2.96875 
Q 13.578125 9.03125 14.25 14.46875 
Q 14.9375 19.921875 14.9375 25.640625 
Q 14.9375 37.25 12.453125 47.625 
Q 9.96875 58.015625 3.265625 72.796875 
L 12.59375 72.796875 
Q 19.96875 62.3125 24.046875 50.53125 
Q 28.125 38.765625 28.125 26.65625 
Q 28.125 16.453125 24.90625 4.78125 
Q 21.234375 -8.296875 12.84375 -21.046875 
z
" id="Arial-BoldMT-41"/>
     </defs>
     <g style="fill:#11f806;" transform="translate(19.623281 214.288125)rotate(-90)scale(0.12 -0.12)">
      <use xlink:href="#Arial-BoldMT-65"/>
      <use x="72.169922" xlink:href="#Arial-BoldMT-118"/>
      <use x="127.785156" xlink:href="#Arial-BoldMT-101"/>
      <use x="183.400391" xlink:href="#Arial-BoldMT-114"/>
      <use x="222.316406" xlink:href="#Arial-BoldMT-97"/>
      <use x="277.931641" xlink:href="#Arial-BoldMT-103"/>
      <use x="339.015625" xlink:href="#Arial-BoldMT-101"/>
      <use x="394.630859" xlink:href="#Arial-BoldMT-32"/>
      <use x="422.414062" xlink:href="#Arial-BoldMT-84"/>
      <use x="483.388672" xlink:href="#Arial-BoldMT-101"/>
      <use x="539.003906" xlink:href="#Arial-BoldMT-109"/>
      <use x="627.919922" xlink:href="#Arial-BoldMT-112"/>
      <use x="689.003906" xlink:href="#Arial-BoldMT-101"/>
      <use x="744.619141" xlink:href="#Arial-BoldMT-114"/>
      <use x="783.535156" xlink:href="#Arial-BoldMT-97"/>
      <use x="839.150391" xlink:href="#Arial-BoldMT-116"/>
      <use x="872.451172" xlink:href="#Arial-BoldMT-117"/>
      <use x="933.535156" xlink:href="#Arial-BoldMT-114"/>
      <use x="972.451172" xlink:href="#Arial-BoldMT-101"/>
      <use x="1028.066406" xlink:href="#Arial-BoldMT-32"/>
      <use x="1055.849609" xlink:href="#Arial-BoldMT-40"/>
      <use x="1089.150391" xlink:href="#Arial-BoldMT-70"/>
      <use x="1150.234375" xlink:href="#Arial-BoldMT-41"/>
     </g>
    </g>
   </g>
   <g id="PathCollection_1">
    <defs>
     <path d="M 0 3 
C 0.795609 3 1.55874 2.683901 2.12132 2.12132 
C 2.683901 1.55874 3 0.795609 3 0 
C 3 -0.795609 2.683901 -1.55874 2.12132 -2.12132 
C 1.55874 -2.683901 0.795609 -3 0 -3 
C -0.795609 -3 -1.55874 -2.683901 -2.12132 -2.12132 
C -2.683901 -1.55874 -3 -0.795609 -3 0 
C -3 0.795609 -2.683901 1.55874 -2.12132 2.12132 
C -1.55874 2.683901 -0.795609 3 0 3 
z
" id="m85a0484828" style="stroke:#11f806;stroke-opacity:0.8;"/>
    </defs>
    <g clip-path="url(#p476dbd4c62)">
     <use style="fill:#11f806;fill-opacity:0.8;stroke:#11f806;stroke-opacity:0.8;" x="209.191725" xlink:href="#m85a0484828" y="149.611744"/>
     <use style="fill:#11f806;fill-opacity:0.8;stroke:#11f806;stroke-opacity:0.8;" x="209.310512" xlink:href="#m85a0484828" y="149.703721"/>
     <use style="fill:#11f806;fill-opacity:0.8;stroke:#11f806;stroke-opacity:0.8;" x="208.578304" xlink:href="#m85a0484828" y="148.872992"/>
     <use style="fill:#11f806;fill-opacity:0.8;stroke:#11f806;stroke-opacity:0.8;" x="209.266936" xlink:href="#m85a0484828" y="149.510961"/>
     <use style="fill:#11f806;fill-opacity:0.8;stroke:#11f806;stroke-opacity:0.8;" x="209.829561" xlink:href="#m85a0484828" y="149.455513"/>
     <use style="fill:#11f806;fill-opacity:0.8;stroke:#11f806;stroke-opacity:0.8;" x="209.599892" xlink:href="#m85a0484828" y="149.124135"/>
     <use style="fill:#11f806;fill-opacity:0.8;stroke:#11f806;stroke-opacity:0.8;" x="209.974909" xlink:href="#m85a0484828" y="149.016176"/>
     <use style="fill:#11f806;fill-opacity:0.8;stroke:#11f806;stroke-opacity:0.8;" x="210.181757" xlink:href="#m85a0484828" y="148.255245"/>
     <use style="fill:#11f806;fill-opacity:0.8;stroke:#11f806;stroke-opacity:0.8;" x="210.1694" xlink:href="#m85a0484828" y="149.064448"/>
     <use style="fill:#11f806;fill-opacity:0.8;stroke:#11f806;stroke-opacity:0.8;" x="210.362534" xlink:href="#m85a0484828" y="148.63359"/>
     <use style="fill:#11f806;fill-opacity:0.8;stroke:#11f806;stroke-opacity:0.8;" x="210.813556" xlink:href="#m85a0484828" y="150.159041"/>
     <use style="fill:#11f806;fill-opacity:0.8;stroke:#11f806;stroke-opacity:0.8;" x="209.998405" xlink:href="#m85a0484828" y="148.628046"/>
     <use style="fill:#11f806;fill-opacity:0.8;stroke:#11f806;stroke-opacity:0.8;" x="209.325816" xlink:href="#m85a0484828" y="148.292753"/>
     <use style="fill:#11f806;fill-opacity:0.8;stroke:#11f806;stroke-opacity:0.8;" x="208.621545" xlink:href="#m85a0484828" y="148.347548"/>
     <use style="fill:#11f806;fill-opacity:0.8;stroke:#11f806;stroke-opacity:0.8;" x="209.083171" xlink:href="#m85a0484828" y="149.783957"/>
     <use style="fill:#11f806;fill-opacity:0.8;stroke:#11f806;stroke-opacity:0.8;" x="209.335144" xlink:href="#m85a0484828" y="148.648594"/>
     <use style="fill:#11f806;fill-opacity:0.8;stroke:#11f806;stroke-opacity:0.8;" x="209.864023" xlink:href="#m85a0484828" y="149.089236"/>
     <use style="fill:#11f806;fill-opacity:0.8;stroke:#11f806;stroke-opacity:0.8;" x="210.550631" xlink:href="#m85a0484828" y="148.939528"/>
     <use style="fill:#11f806;fill-opacity:0.8;stroke:#11f806;stroke-opacity:0.8;" x="210.958787" xlink:href="#m85a0484828" y="148.374619"/>
     <use style="fill:#11f806;fill-opacity:0.8;stroke:#11f806;stroke-opacity:0.8;" x="209.903773" xlink:href="#m85a0484828" y="147.727518"/>
     <use style="fill:#11f806;fill-opacity:0.8;stroke:#11f806;stroke-opacity:0.8;" x="210.676869" xlink:href="#m85a0484828" y="148.131956"/>
     <use style="fill:#11f806;fill-opacity:0.8;stroke:#11f806;stroke-opacity:0.8;" x="211.432532" xlink:href="#m85a0484828" y="148.114996"/>
     <use style="fill:#11f806;fill-opacity:0.8;stroke:#11f806;stroke-opacity:0.8;" x="212.850718" xlink:href="#m85a0484828" y="148.09934"/>
     <use style="fill:#11f806;fill-opacity:0.8;stroke:#11f806;stroke-opacity:0.8;" x="213.898622" xlink:href="#m85a0484828" y="148.256875"/>
     <use style="fill:#11f806;fill-opacity:0.8;stroke:#11f806;stroke-opacity:0.8;" x="215.672186" xlink:href="#m85a0484828" y="148.152504"/>
     <use style="fill:#11f806;fill-opacity:0.8;stroke:#11f806;stroke-opacity:0.8;" x="216.415353" xlink:href="#m85a0484828" y="147.800578"/>
     <use style="fill:#11f806;fill-opacity:0.8;stroke:#11f806;stroke-opacity:0.8;" x="214.824561" xlink:href="#m85a0484828" y="148.818849"/>
     <use style="fill:#11f806;fill-opacity:0.8;stroke:#11f806;stroke-opacity:0.8;" x="213.511437" xlink:href="#m85a0484828" y="148.458442"/>
     <use style="fill:#11f806;fill-opacity:0.8;stroke:#11f806;stroke-opacity:0.8;" x="214.395972" xlink:href="#m85a0484828" y="147.98812"/>
     <use style="fill:#11f806;fill-opacity:0.8;stroke:#11f806;stroke-opacity:0.8;" x="214.724766" xlink:href="#m85a0484828" y="148.18512"/>
     <use style="fill:#11f806;fill-opacity:0.8;stroke:#11f806;stroke-opacity:0.8;" x="214.251699" xlink:href="#m85a0484828" y="148.811347"/>
     <use style="fill:#11f806;fill-opacity:0.8;stroke:#11f806;stroke-opacity:0.8;" x="215.122643" xlink:href="#m85a0484828" y="149.678281"/>
     <use style="fill:#11f806;fill-opacity:0.8;stroke:#11f806;stroke-opacity:0.8;" x="216.114578" xlink:href="#m85a0484828" y="148.659031"/>
     <use style="fill:#11f806;fill-opacity:0.8;stroke:#11f806;stroke-opacity:0.8;" x="216.58239" xlink:href="#m85a0484828" y="148.609781"/>
     <use style="fill:#11f806;fill-opacity:0.8;stroke:#11f806;stroke-opacity:0.8;" x="217.559055" xlink:href="#m85a0484828" y="147.688052"/>
     <use style="fill:#11f806;fill-opacity:0.8;stroke:#11f806;stroke-opacity:0.8;" x="217.531584" xlink:href="#m85a0484828" y="148.913436"/>
     <use style="fill:#11f806;fill-opacity:0.8;stroke:#11f806;stroke-opacity:0.8;" x="220.061947" xlink:href="#m85a0484828" y="148.656748"/>
     <use style="fill:#11f806;fill-opacity:0.8;stroke:#11f806;stroke-opacity:0.8;" x="224.400682" xlink:href="#m85a0484828" y="150.013573"/>
     <use style="fill:#11f806;fill-opacity:0.8;stroke:#11f806;stroke-opacity:0.8;" x="225.463573" xlink:href="#m85a0484828" y="148.240894"/>
     <use style="fill:#11f806;fill-opacity:0.8;stroke:#11f806;stroke-opacity:0.8;" x="223.837531" xlink:href="#m85a0484828" y="148.079444"/>
     <use style="fill:#11f806;fill-opacity:0.8;stroke:#11f806;stroke-opacity:0.8;" x="224.266632" xlink:href="#m85a0484828" y="148.240241"/>
     <use style="fill:#11f806;fill-opacity:0.8;stroke:#11f806;stroke-opacity:0.8;" x="225.159366" xlink:href="#m85a0484828" y="148.823089"/>
     <use style="fill:#11f806;fill-opacity:0.8;stroke:#11f806;stroke-opacity:0.8;" x="225.80654" xlink:href="#m85a0484828" y="147.985836"/>
     <use style="fill:#11f806;fill-opacity:0.8;stroke:#11f806;stroke-opacity:0.8;" x="227.110369" xlink:href="#m85a0484828" y="148.188382"/>
     <use style="fill:#11f806;fill-opacity:0.8;stroke:#11f806;stroke-opacity:0.8;" x="227.866868" xlink:href="#m85a0484828" y="147.757524"/>
     <use style="fill:#11f806;fill-opacity:0.8;stroke:#11f806;stroke-opacity:0.8;" x="229.510873" xlink:href="#m85a0484828" y="149.504437"/>
     <use style="fill:#11f806;fill-opacity:0.8;stroke:#11f806;stroke-opacity:0.8;" x="230.489956" xlink:href="#m85a0484828" y="149.043573"/>
     <use style="fill:#11f806;fill-opacity:0.8;stroke:#11f806;stroke-opacity:0.8;" x="231.543859" xlink:href="#m85a0484828" y="148.762097"/>
     <use style="fill:#11f806;fill-opacity:0.8;stroke:#11f806;stroke-opacity:0.8;" x="231.740664" xlink:href="#m85a0484828" y="148.36777"/>
     <use style="fill:#11f806;fill-opacity:0.8;stroke:#11f806;stroke-opacity:0.8;" x="233.189663" xlink:href="#m85a0484828" y="149.086953"/>
     <use style="fill:#11f806;fill-opacity:0.8;stroke:#11f806;stroke-opacity:0.8;" x="235.517109" xlink:href="#m85a0484828" y="148.778731"/>
     <use style="fill:#11f806;fill-opacity:0.8;stroke:#11f806;stroke-opacity:0.8;" x="237.064589" xlink:href="#m85a0484828" y="148.364508"/>
     <use style="fill:#11f806;fill-opacity:0.8;stroke:#11f806;stroke-opacity:0.8;" x="237.979961" xlink:href="#m85a0484828" y="148.762423"/>
     <use style="fill:#11f806;fill-opacity:0.8;stroke:#11f806;stroke-opacity:0.8;" x="240.053989" xlink:href="#m85a0484828" y="149.152511"/>
     <use style="fill:#11f806;fill-opacity:0.8;stroke:#11f806;stroke-opacity:0.8;" x="242.700436" xlink:href="#m85a0484828" y="147.396465"/>
     <use style="fill:#11f806;fill-opacity:0.8;stroke:#11f806;stroke-opacity:0.8;" x="242.976074" xlink:href="#m85a0484828" y="149.278082"/>
     <use style="fill:#11f806;fill-opacity:0.8;stroke:#11f806;stroke-opacity:0.8;" x="239.50479" xlink:href="#m85a0484828" y="148.192622"/>
     <use style="fill:#11f806;fill-opacity:0.8;stroke:#11f806;stroke-opacity:0.8;" x="240.723189" xlink:href="#m85a0484828" y="149.748731"/>
     <use style="fill:#11f806;fill-opacity:0.8;stroke:#11f806;stroke-opacity:0.8;" x="241.53885" xlink:href="#m85a0484828" y="147.78003"/>
     <use style="fill:#11f806;fill-opacity:0.8;stroke:#11f806;stroke-opacity:0.8;" x="242.526217" xlink:href="#m85a0484828" y="148.396472"/>
     <use style="fill:#11f806;fill-opacity:0.8;stroke:#11f806;stroke-opacity:0.8;" x="244.196717" xlink:href="#m85a0484828" y="148.237306"/>
     <use style="fill:#11f806;fill-opacity:0.8;stroke:#11f806;stroke-opacity:0.8;" x="244.141796" xlink:href="#m85a0484828" y="147.270894"/>
     <use style="fill:#11f806;fill-opacity:0.8;stroke:#11f806;stroke-opacity:0.8;" x="243.895737" xlink:href="#m85a0484828" y="146.544862"/>
     <use style="fill:#11f806;fill-opacity:0.8;stroke:#11f806;stroke-opacity:0.8;" x="243.362323" xlink:href="#m85a0484828" y="148.606193"/>
     <use style="fill:#11f806;fill-opacity:0.8;stroke:#11f806;stroke-opacity:0.8;" x="243.589213" xlink:href="#m85a0484828" y="147.083678"/>
     <use style="fill:#11f806;fill-opacity:0.8;stroke:#11f806;stroke-opacity:0.8;" x="245.20679" xlink:href="#m85a0484828" y="148.40006"/>
     <use style="fill:#11f806;fill-opacity:0.8;stroke:#11f806;stroke-opacity:0.8;" x="244.952494" xlink:href="#m85a0484828" y="148.532481"/>
     <use style="fill:#11f806;fill-opacity:0.8;stroke:#11f806;stroke-opacity:0.8;" x="245.75877" xlink:href="#m85a0484828" y="147.845262"/>
     <use style="fill:#11f806;fill-opacity:0.8;stroke:#11f806;stroke-opacity:0.8;" x="246.736118" xlink:href="#m85a0484828" y="147.215773"/>
     <use style="fill:#11f806;fill-opacity:0.8;stroke:#11f806;stroke-opacity:0.8;" x="248.762742" xlink:href="#m85a0484828" y="146.404939"/>
     <use style="fill:#11f806;fill-opacity:0.8;stroke:#11f806;stroke-opacity:0.8;" x="249.833958" xlink:href="#m85a0484828" y="147.499206"/>
     <use style="fill:#11f806;fill-opacity:0.8;stroke:#11f806;stroke-opacity:0.8;" x="249.585461" xlink:href="#m85a0484828" y="146.27741"/>
     <use style="fill:#11f806;fill-opacity:0.8;stroke:#11f806;stroke-opacity:0.8;" x="248.285393" xlink:href="#m85a0484828" y="146.491698"/>
     <use style="fill:#11f806;fill-opacity:0.8;stroke:#11f806;stroke-opacity:0.8;" x="248.159018" xlink:href="#m85a0484828" y="147.83352"/>
     <use style="fill:#11f806;fill-opacity:0.8;stroke:#11f806;stroke-opacity:0.8;" x="248.373383" xlink:href="#m85a0484828" y="147.716102"/>
     <use style="fill:#11f806;fill-opacity:0.8;stroke:#11f806;stroke-opacity:0.8;" x="249.572179" xlink:href="#m85a0484828" y="147.042256"/>
     <use style="fill:#11f806;fill-opacity:0.8;stroke:#11f806;stroke-opacity:0.8;" x="250.874819" xlink:href="#m85a0484828" y="145.835464"/>
     <use style="fill:#11f806;fill-opacity:0.8;stroke:#11f806;stroke-opacity:0.8;" x="251.51107" xlink:href="#m85a0484828" y="147.041603"/>
     <use style="fill:#11f806;fill-opacity:0.8;stroke:#11f806;stroke-opacity:0.8;" x="253.40452" xlink:href="#m85a0484828" y="146.401025"/>
     <use style="fill:#11f806;fill-opacity:0.8;stroke:#11f806;stroke-opacity:0.8;" x="253.124653" xlink:href="#m85a0484828" y="145.148244"/>
     <use style="fill:#11f806;fill-opacity:0.8;stroke:#11f806;stroke-opacity:0.8;" x="253.867828" xlink:href="#m85a0484828" y="146.078127"/>
     <use style="fill:#11f806;fill-opacity:0.8;stroke:#11f806;stroke-opacity:0.8;" x="258.045913" xlink:href="#m85a0484828" y="146.40657"/>
     <use style="fill:#11f806;fill-opacity:0.8;stroke:#11f806;stroke-opacity:0.8;" x="258.56306" xlink:href="#m85a0484828" y="145.571274"/>
     <use style="fill:#11f806;fill-opacity:0.8;stroke:#11f806;stroke-opacity:0.8;" x="259.424889" xlink:href="#m85a0484828" y="144.961355"/>
     <use style="fill:#11f806;fill-opacity:0.8;stroke:#11f806;stroke-opacity:0.8;" x="260.506119" xlink:href="#m85a0484828" y="145.136829"/>
     <use style="fill:#11f806;fill-opacity:0.8;stroke:#11f806;stroke-opacity:0.8;" x="262.48179" xlink:href="#m85a0484828" y="145.923527"/>
     <use style="fill:#11f806;fill-opacity:0.8;stroke:#11f806;stroke-opacity:0.8;" x="264.047298" xlink:href="#m85a0484828" y="144.450588"/>
     <use style="fill:#11f806;fill-opacity:0.8;stroke:#11f806;stroke-opacity:0.8;" x="267.239696" xlink:href="#m85a0484828" y="145.109758"/>
     <use style="fill:#11f806;fill-opacity:0.8;stroke:#11f806;stroke-opacity:0.8;" x="270.002733" xlink:href="#m85a0484828" y="144.328278"/>
     <use style="fill:#11f806;fill-opacity:0.8;stroke:#11f806;stroke-opacity:0.8;" x="269.652421" xlink:href="#m85a0484828" y="145.504085"/>
     <use style="fill:#11f806;fill-opacity:0.8;stroke:#11f806;stroke-opacity:0.8;" x="262.261147" xlink:href="#m85a0484828" y="145.216412"/>
     <use style="fill:#11f806;fill-opacity:0.8;stroke:#11f806;stroke-opacity:0.8;" x="263.736568" xlink:href="#m85a0484828" y="144.442108"/>
     <use style="fill:#11f806;fill-opacity:0.8;stroke:#11f806;stroke-opacity:0.8;" x="265.065572" xlink:href="#m85a0484828" y="145.174337"/>
     <use style="fill:#11f806;fill-opacity:0.8;stroke:#11f806;stroke-opacity:0.8;" x="264.53" xlink:href="#m85a0484828" y="145.208258"/>
     <use style="fill:#11f806;fill-opacity:0.8;stroke:#11f806;stroke-opacity:0.8;" x="264.453646" xlink:href="#m85a0484828" y="144.820128"/>
     <use style="fill:#11f806;fill-opacity:0.8;stroke:#11f806;stroke-opacity:0.8;" x="265.863517" xlink:href="#m85a0484828" y="144.960376"/>
     <use style="fill:#11f806;fill-opacity:0.8;stroke:#11f806;stroke-opacity:0.8;" x="267.165609" xlink:href="#m85a0484828" y="143.941452"/>
    </g>
   </g>
   <g id="PolyCollection_1">
    <defs>
     <path d="M 205.47755 -138.758673 
L 205.47755 -138.251572 
L 206.16064 -138.297984 
L 206.843731 -138.345988 
L 207.526821 -138.394074 
L 208.209911 -138.440521 
L 208.893001 -138.486892 
L 209.576092 -138.531572 
L 210.259182 -138.577895 
L 210.942272 -138.625963 
L 211.625363 -138.672346 
L 212.308453 -138.718764 
L 212.991543 -138.765182 
L 213.674633 -138.811579 
L 214.357724 -138.856876 
L 215.040814 -138.903175 
L 215.723904 -138.950291 
L 216.406994 -138.997093 
L 217.090085 -139.043417 
L 217.773175 -139.089488 
L 218.456265 -139.136206 
L 219.139355 -139.18197 
L 219.822446 -139.226958 
L 220.505536 -139.272094 
L 221.188626 -139.31566 
L 221.871717 -139.355059 
L 222.554807 -139.400701 
L 223.237897 -139.443992 
L 223.920987 -139.486778 
L 224.604078 -139.53216 
L 225.287168 -139.573867 
L 225.970258 -139.616888 
L 226.653348 -139.65974 
L 227.336439 -139.70479 
L 228.019529 -139.749843 
L 228.702619 -139.792706 
L 229.38571 -139.82859 
L 230.0688 -139.871016 
L 230.75189 -139.914631 
L 231.43498 -139.958395 
L 232.118071 -139.997521 
L 232.801161 -140.037339 
L 233.484251 -140.079428 
L 234.167341 -140.120029 
L 234.850432 -140.161104 
L 235.533522 -140.202641 
L 236.216612 -140.243982 
L 236.899702 -140.286198 
L 237.582793 -140.32656 
L 238.265883 -140.364561 
L 238.948973 -140.403576 
L 239.632064 -140.442742 
L 240.315154 -140.48279 
L 240.998244 -140.524373 
L 241.681334 -140.566215 
L 242.364425 -140.60431 
L 243.047515 -140.643606 
L 243.730605 -140.680705 
L 244.413695 -140.71869 
L 245.096786 -140.756511 
L 245.779876 -140.794283 
L 246.462966 -140.831758 
L 247.146057 -140.869725 
L 247.829147 -140.907433 
L 248.512237 -140.943433 
L 249.195327 -140.981954 
L 249.878418 -141.01971 
L 250.561508 -141.056792 
L 251.244598 -141.095461 
L 251.927688 -141.133713 
L 252.610779 -141.171344 
L 253.293869 -141.207188 
L 253.976959 -141.243046 
L 254.66005 -141.278903 
L 255.34314 -141.314846 
L 256.02623 -141.353047 
L 256.70932 -141.389862 
L 257.392411 -141.425387 
L 258.075501 -141.464221 
L 258.758591 -141.500325 
L 259.441681 -141.536455 
L 260.124772 -141.571735 
L 260.807862 -141.60827 
L 261.490952 -141.642055 
L 262.174042 -141.676646 
L 262.857133 -141.712094 
L 263.540223 -141.748731 
L 264.223313 -141.785403 
L 264.906404 -141.822105 
L 265.589494 -141.858808 
L 266.272584 -141.895676 
L 266.955674 -141.933232 
L 267.638765 -141.969752 
L 268.321855 -142.005871 
L 269.004945 -142.04222 
L 269.688035 -142.07806 
L 270.371126 -142.113016 
L 271.054216 -142.149485 
L 271.737306 -142.186318 
L 272.420397 -142.222395 
L 273.103487 -142.258471 
L 273.103487 -143.082453 
L 273.103487 -143.082453 
L 272.420397 -143.036934 
L 271.737306 -142.990569 
L 271.054216 -142.944423 
L 270.371126 -142.897786 
L 269.688035 -142.85115 
L 269.004945 -142.804468 
L 268.321855 -142.756732 
L 267.638765 -142.710434 
L 266.955674 -142.664548 
L 266.272584 -142.617891 
L 265.589494 -142.571186 
L 264.906404 -142.52278 
L 264.223313 -142.475192 
L 263.540223 -142.428667 
L 262.857133 -142.382141 
L 262.174042 -142.335278 
L 261.490952 -142.287238 
L 260.807862 -142.241463 
L 260.124772 -142.194176 
L 259.441681 -142.148112 
L 258.758591 -142.102343 
L 258.075501 -142.056422 
L 257.392411 -142.009915 
L 256.70932 -141.963408 
L 256.02623 -141.916858 
L 255.34314 -141.867966 
L 254.66005 -141.821575 
L 253.976959 -141.777012 
L 253.293869 -141.730772 
L 252.610779 -141.684244 
L 251.927688 -141.63773 
L 251.244598 -141.591204 
L 250.561508 -141.544833 
L 249.878418 -141.501542 
L 249.195327 -141.45625 
L 248.512237 -141.411603 
L 247.829147 -141.367969 
L 247.146057 -141.323543 
L 246.462966 -141.28013 
L 245.779876 -141.234922 
L 245.096786 -141.189169 
L 244.413695 -141.144822 
L 243.730605 -141.099 
L 243.047515 -141.05039 
L 242.364425 -141.005117 
L 241.681334 -140.960257 
L 240.998244 -140.914648 
L 240.315154 -140.86975 
L 239.632064 -140.826156 
L 238.948973 -140.783236 
L 238.265883 -140.738495 
L 237.582793 -140.693245 
L 236.899702 -140.649381 
L 236.216612 -140.607834 
L 235.533522 -140.564354 
L 234.850432 -140.520813 
L 234.167341 -140.477298 
L 233.484251 -140.435486 
L 232.801161 -140.392296 
L 232.118071 -140.349884 
L 231.43498 -140.30743 
L 230.75189 -140.263058 
L 230.0688 -140.221181 
L 229.38571 -140.179785 
L 228.702619 -140.13613 
L 228.019529 -140.095434 
L 227.336439 -140.052178 
L 226.653348 -140.008455 
L 225.970258 -139.964755 
L 225.287168 -139.921011 
L 224.604078 -139.877338 
L 223.920987 -139.834593 
L 223.237897 -139.791028 
L 222.554807 -139.748307 
L 221.871717 -139.707977 
L 221.188626 -139.667743 
L 220.505536 -139.624839 
L 219.822446 -139.585556 
L 219.139355 -139.545688 
L 218.456265 -139.507258 
L 217.773175 -139.47012 
L 217.090085 -139.428641 
L 216.406994 -139.386537 
L 215.723904 -139.345873 
L 215.040814 -139.304433 
L 214.357724 -139.262258 
L 213.674633 -139.221532 
L 212.991543 -139.180089 
L 212.308453 -139.139941 
L 211.625363 -139.099112 
L 210.942272 -139.061384 
L 210.259182 -139.023654 
L 209.576092 -138.985944 
L 208.893001 -138.948771 
L 208.209911 -138.910525 
L 207.526821 -138.872815 
L 206.843731 -138.835105 
L 206.16064 -138.797395 
L 205.47755 -138.758673 
z
" id="mef2d879938" style="stroke:#ffffff;stroke-opacity:0.15;"/>
    </defs>
    <g clip-path="url(#p476dbd4c62)">
     <use style="fill:#f65353;fill-opacity:0.15;stroke:#ffffff;stroke-opacity:0.15;" x="0" xlink:href="#mef2d879938" y="288"/>
    </g>
   </g>
   <g id="line2d_13">
    <path clip-path="url(#p476dbd4c62)" d="M 205.47755 149.472185 
L 206.16064 149.429862 
L 206.843731 149.387539 
L 207.526821 149.345216 
L 208.209911 149.302893 
L 208.893001 149.26057 
L 209.576092 149.218247 
L 210.259182 149.175924 
L 210.942272 149.133601 
L 211.625363 149.091278 
L 212.308453 149.048955 
L 212.991543 149.006632 
L 213.674633 148.964309 
L 214.357724 148.921986 
L 215.040814 148.879663 
L 215.723904 148.83734 
L 216.406994 148.795017 
L 217.090085 148.752694 
L 217.773175 148.710371 
L 218.456265 148.668048 
L 219.139355 148.625725 
L 219.822446 148.583402 
L 220.505536 148.541079 
L 221.188626 148.498756 
L 221.871717 148.456433 
L 222.554807 148.41411 
L 223.237897 148.371787 
L 223.920987 148.329464 
L 224.604078 148.287141 
L 225.287168 148.244818 
L 225.970258 148.202495 
L 226.653348 148.160172 
L 227.336439 148.117849 
L 228.019529 148.075526 
L 228.702619 148.033203 
L 229.38571 147.99088 
L 230.0688 147.948557 
L 230.75189 147.906234 
L 231.43498 147.863911 
L 232.118071 147.821588 
L 232.801161 147.779265 
L 233.484251 147.736942 
L 234.167341 147.694619 
L 234.850432 147.652296 
L 235.533522 147.609973 
L 236.216612 147.56765 
L 236.899702 147.525327 
L 237.582793 147.483004 
L 238.265883 147.440681 
L 238.948973 147.398358 
L 239.632064 147.356035 
L 240.315154 147.313712 
L 240.998244 147.271389 
L 241.681334 147.229066 
L 242.364425 147.186743 
L 243.047515 147.14442 
L 243.730605 147.102097 
L 244.413695 147.059774 
L 245.096786 147.017451 
L 245.779876 146.975128 
L 246.462966 146.932805 
L 247.146057 146.890482 
L 247.829147 146.848159 
L 248.512237 146.805836 
L 249.195327 146.763513 
L 249.878418 146.72119 
L 250.561508 146.678867 
L 251.244598 146.636544 
L 251.927688 146.594221 
L 252.610779 146.551898 
L 253.293869 146.509575 
L 253.976959 146.467252 
L 254.66005 146.424929 
L 255.34314 146.382606 
L 256.02623 146.340283 
L 256.70932 146.29796 
L 257.392411 146.255637 
L 258.075501 146.213314 
L 258.758591 146.170991 
L 259.441681 146.128668 
L 260.124772 146.086345 
L 260.807862 146.044022 
L 261.490952 146.001699 
L 262.174042 145.959376 
L 262.857133 145.917053 
L 263.540223 145.87473 
L 264.223313 145.832407 
L 264.906404 145.790084 
L 265.589494 145.747761 
L 266.272584 145.705437 
L 266.955674 145.663114 
L 267.638765 145.620791 
L 268.321855 145.578468 
L 269.004945 145.536145 
L 269.688035 145.493822 
L 270.371126 145.451499 
L 271.054216 145.409176 
L 271.737306 145.366853 
L 272.420397 145.32453 
L 273.103487 145.282207 
" style="fill:none;stroke:#f65353;stroke-linecap:round;stroke-width:2.25;"/>
   </g>
   <g id="patch_3">
    <path d="M 54 252 
L 54 34.56 
" style="fill:none;stroke:#262626;stroke-linecap:square;stroke-linejoin:miter;stroke-width:1.25;"/>
   </g>
   <g id="patch_4">
    <path d="M 388.8 252 
L 388.8 34.56 
" style="fill:none;stroke:#262626;stroke-linecap:square;stroke-linejoin:miter;stroke-width:1.25;"/>
   </g>
   <g id="patch_5">
    <path d="M 54 252 
L 388.8 252 
" style="fill:none;stroke:#262626;stroke-linecap:square;stroke-linejoin:miter;stroke-width:1.25;"/>
   </g>
   <g id="patch_6">
    <path d="M 54 34.56 
L 388.8 34.56 
" style="fill:none;stroke:#262626;stroke-linecap:square;stroke-linejoin:miter;stroke-width:1.25;"/>
   </g>
   <g id="text_15">
    <!-- Yearly Average Temperature as Yearly Industrial Output Changes -->
    <defs>
     <path d="M 26.078125 0 
L 26.078125 30.125 
L -0.140625 71.578125 
L 16.796875 71.578125 
L 33.640625 43.265625 
L 50.140625 71.578125 
L 66.796875 71.578125 
L 40.484375 30.03125 
L 40.484375 0 
z
" id="Arial-BoldMT-89"/>
     <path d="M 0.6875 51.859375 
L 15.28125 51.859375 
L 27.6875 15.046875 
L 39.796875 51.859375 
L 54 51.859375 
L 35.6875 1.953125 
L 32.421875 -7.078125 
Q 30.609375 -11.625 28.96875 -14.015625 
Q 27.34375 -16.40625 25.21875 -17.890625 
Q 23.09375 -19.390625 19.984375 -20.21875 
Q 16.890625 -21.046875 12.984375 -21.046875 
Q 9.03125 -21.046875 5.21875 -20.21875 
L 4 -9.46875 
Q 7.234375 -10.109375 9.8125 -10.109375 
Q 14.59375 -10.109375 16.890625 -7.296875 
Q 19.1875 -4.5 20.40625 -0.140625 
z
" id="Arial-BoldMT-121"/>
     <path d="M 53.078125 26.3125 
L 67.09375 21.875 
Q 63.875 10.15625 56.375 4.46875 
Q 48.875 -1.21875 37.359375 -1.21875 
Q 23.09375 -1.21875 13.90625 8.515625 
Q 4.734375 18.265625 4.734375 35.15625 
Q 4.734375 53.03125 13.953125 62.90625 
Q 23.1875 72.796875 38.234375 72.796875 
Q 51.375 72.796875 59.578125 65.046875 
Q 64.453125 60.453125 66.890625 51.859375 
L 52.59375 48.4375 
Q 51.3125 54 47.28125 57.21875 
Q 43.265625 60.453125 37.5 60.453125 
Q 29.546875 60.453125 24.578125 54.734375 
Q 19.625 49.03125 19.625 36.234375 
Q 19.625 22.65625 24.5 16.890625 
Q 29.390625 11.140625 37.203125 11.140625 
Q 42.96875 11.140625 47.109375 14.796875 
Q 51.265625 18.453125 53.078125 26.3125 
z
" id="Arial-BoldMT-67"/>
     <path d="M 20.84375 71.578125 
L 20.84375 45.265625 
Q 27.484375 53.03125 36.71875 53.03125 
Q 41.453125 53.03125 45.265625 51.265625 
Q 49.078125 49.515625 51 46.78125 
Q 52.9375 44.046875 53.640625 40.71875 
Q 54.34375 37.40625 54.34375 30.421875 
L 54.34375 0 
L 40.625 0 
L 40.625 27.390625 
Q 40.625 35.546875 39.84375 37.734375 
Q 39.0625 39.9375 37.078125 41.234375 
Q 35.109375 42.53125 32.125 42.53125 
Q 28.71875 42.53125 26.03125 40.859375 
Q 23.34375 39.203125 22.09375 35.859375 
Q 20.84375 32.515625 20.84375 25.984375 
L 20.84375 0 
L 7.125 0 
L 7.125 71.578125 
z
" id="Arial-BoldMT-104"/>
    </defs>
    <g style="fill:#11f806;" transform="translate(35.035313 28.56)scale(0.12 -0.12)">
     <use xlink:href="#Arial-BoldMT-89"/>
     <use x="66.621094" xlink:href="#Arial-BoldMT-101"/>
     <use x="122.236328" xlink:href="#Arial-BoldMT-97"/>
     <use x="177.851562" xlink:href="#Arial-BoldMT-114"/>
     <use x="216.767578" xlink:href="#Arial-BoldMT-108"/>
     <use x="244.550781" xlink:href="#Arial-BoldMT-121"/>
     <use x="300.166016" xlink:href="#Arial-BoldMT-32"/>
     <use x="327.902344" xlink:href="#Arial-BoldMT-65"/>
     <use x="400.072266" xlink:href="#Arial-BoldMT-118"/>
     <use x="455.6875" xlink:href="#Arial-BoldMT-101"/>
     <use x="511.302734" xlink:href="#Arial-BoldMT-114"/>
     <use x="550.21875" xlink:href="#Arial-BoldMT-97"/>
     <use x="605.833984" xlink:href="#Arial-BoldMT-103"/>
     <use x="666.917969" xlink:href="#Arial-BoldMT-101"/>
     <use x="722.533203" xlink:href="#Arial-BoldMT-32"/>
     <use x="750.316406" xlink:href="#Arial-BoldMT-84"/>
     <use x="811.291016" xlink:href="#Arial-BoldMT-101"/>
     <use x="866.90625" xlink:href="#Arial-BoldMT-109"/>
     <use x="955.822266" xlink:href="#Arial-BoldMT-112"/>
     <use x="1016.90625" xlink:href="#Arial-BoldMT-101"/>
     <use x="1072.521484" xlink:href="#Arial-BoldMT-114"/>
     <use x="1111.4375" xlink:href="#Arial-BoldMT-97"/>
     <use x="1167.052734" xlink:href="#Arial-BoldMT-116"/>
     <use x="1200.353516" xlink:href="#Arial-BoldMT-117"/>
     <use x="1261.4375" xlink:href="#Arial-BoldMT-114"/>
     <use x="1300.353516" xlink:href="#Arial-BoldMT-101"/>
     <use x="1355.96875" xlink:href="#Arial-BoldMT-32"/>
     <use x="1383.751953" xlink:href="#Arial-BoldMT-97"/>
     <use x="1439.367188" xlink:href="#Arial-BoldMT-115"/>
     <use x="1494.982422" xlink:href="#Arial-BoldMT-32"/>
     <use x="1522.75" xlink:href="#Arial-BoldMT-89"/>
     <use x="1589.371094" xlink:href="#Arial-BoldMT-101"/>
     <use x="1644.986328" xlink:href="#Arial-BoldMT-97"/>
     <use x="1700.601562" xlink:href="#Arial-BoldMT-114"/>
     <use x="1739.517578" xlink:href="#Arial-BoldMT-108"/>
     <use x="1767.300781" xlink:href="#Arial-BoldMT-121"/>
     <use x="1822.916016" xlink:href="#Arial-BoldMT-32"/>
     <use x="1850.699219" xlink:href="#Arial-BoldMT-73"/>
     <use x="1878.482422" xlink:href="#Arial-BoldMT-110"/>
     <use x="1939.566406" xlink:href="#Arial-BoldMT-100"/>
     <use x="2000.650391" xlink:href="#Arial-BoldMT-117"/>
     <use x="2061.734375" xlink:href="#Arial-BoldMT-115"/>
     <use x="2117.349609" xlink:href="#Arial-BoldMT-116"/>
     <use x="2150.650391" xlink:href="#Arial-BoldMT-114"/>
     <use x="2189.566406" xlink:href="#Arial-BoldMT-105"/>
     <use x="2217.349609" xlink:href="#Arial-BoldMT-97"/>
     <use x="2272.964844" xlink:href="#Arial-BoldMT-108"/>
     <use x="2300.748047" xlink:href="#Arial-BoldMT-32"/>
     <use x="2328.53125" xlink:href="#Arial-BoldMT-79"/>
     <use x="2406.314453" xlink:href="#Arial-BoldMT-117"/>
     <use x="2467.398438" xlink:href="#Arial-BoldMT-116"/>
     <use x="2500.699219" xlink:href="#Arial-BoldMT-112"/>
     <use x="2561.783203" xlink:href="#Arial-BoldMT-117"/>
     <use x="2622.867188" xlink:href="#Arial-BoldMT-116"/>
     <use x="2656.167969" xlink:href="#Arial-BoldMT-32"/>
     <use x="2683.951172" xlink:href="#Arial-BoldMT-67"/>
     <use x="2756.167969" xlink:href="#Arial-BoldMT-104"/>
     <use x="2817.251953" xlink:href="#Arial-BoldMT-97"/>
     <use x="2872.867188" xlink:href="#Arial-BoldMT-110"/>
     <use x="2933.951172" xlink:href="#Arial-BoldMT-103"/>
     <use x="2995.035156" xlink:href="#Arial-BoldMT-101"/>
     <use x="3050.650391" xlink:href="#Arial-BoldMT-115"/>
    </g>
   </g>
  </g>
 </g>
 <defs>
  <clipPath id="p476dbd4c62">
   <rect height="217.44" width="334.8" x="54" y="34.56"/>
  </clipPath>
 </defs>
</svg>
