<?xml version="1.0" encoding="UTF-8"?>
<svg width="821px" height="536px" viewBox="0 0 821 536" version="1.1" xmlns="http://www.w3.org/2000/svg" xmlns:xlink="http://www.w3.org/1999/xlink">
    <!-- Generator: Sketch 54.1 (76490) - https://sketchapp.com -->
    <title>line2d_1</title>
    <desc>Created with Sketch.</desc>
    <g id="Page-1" stroke="none" stroke-width="1" fill="none" fill-rule="evenodd" stroke-linecap="round" stroke-opacity="0.7">
        <g id="Artboard" transform="translate(-592.000000, -252.000000)" stroke="#04FCBC" stroke-width="4">
            <g id="Group-2" transform="translate(316.000000, 51.000000)">
                <g id="visualization1">
                    <g id="axes_1-(IO)" transform="translate(0.000000, 176.000000)">
                        <g id="line2d_1" transform="translate(277.780305, 27.806277)">
                            <polyline id="Path" points="0.584854275 524.784449 9.08350941 523.759717 17.5821672 530.076214 26.0808224 524.135624 34.5794802 519.282058 43.078138 521.263332 51.5767931 518.028192 60.075451 516.243789 68.5741061 516.35039 77.0727639 514.684289 85.5714191 510.793478 94.0700769 517.825499 102.568732 523.627694 111.06739 529.703186 119.566045 525.720899 128.064703 523.547216 136.563361 518.984769 145.062016 513.06164 153.560674 509.54062 162.059329 518.641857 170.557987 511.972633 179.056642 505.453791 187.555299 493.219594 196.053955 484.179702 204.552612 468.879781 213.051268 462.468741 221.549925 476.191944 230.048583 487.519805 238.547238 479.889237 247.045896 477.052841 255.544551 481.133823 264.043209 473.620495 272.541864 465.06342 281.040522 461.027775 289.539177 452.602425 298.037835 452.839409 306.53649 431.010856 315.035148 393.582112 323.533806 384.412926 332.032461 398.440222 340.531119 394.738514 349.029774 387.03721 357.528432 381.454272 366.027087 370.206591 374.525745 363.680544 383.0244 349.498284 391.523058 341.052084 400.021713 331.960432 408.520371 330.262667 417.019028 317.762662 425.517684 297.684599 434.016341 284.335028 442.514997 276.43844 451.013654 258.546524 459.512309 235.716558 468.010967 233.338721 476.509622 263.284278 485.00828 252.773572 493.506935 245.737155 502.005593 237.219487 510.504251 222.808666 519.002906 223.282448 527.501564 225.405111 536.000219 230.006693 544.498877 228.049392 552.997532 214.095122 561.49619 216.28884 569.994845 209.333383 578.493503 200.902142 586.992158 183.419174 595.490816 174.178163 603.989474 176.321863 612.488129 187.537098 620.986787 188.627285 629.485442 186.778032 637.9841 176.436441 646.482755 165.199025 654.981412 159.710306 663.480068 143.376185 671.978725 145.790495 680.477381 139.379388 688.976038 103.336507 697.474696 98.875264 705.973351 91.4405725 714.472009 82.1131756 722.970664 65.0697554 731.469322 51.5646673 739.967977 24.0249758 748.466635 0.189222953 756.96529 3.21123932 765.463948 66.9731619 773.962603 54.2452279 782.461261 42.7803789 790.959919 47.4005668 799.458574 48.0592533 807.957232 35.8967843 816.455887 24.6640964"></polyline>
                        </g>
                    </g>
                </g>
            </g>
        </g>
    </g>
</svg>