<?xml version="1.0" encoding="utf-8" standalone="no"?>
<!DOCTYPE svg PUBLIC "-//W3C//DTD SVG 1.1//EN"
  "http://www.w3.org/Graphics/SVG/1.1/DTD/svg11.dtd">
<!-- Created with matplotlib (https://matplotlib.org/) -->
<svg height="288pt" version="1.1" viewBox="0 0 432 288" width="432pt" xmlns="http://www.w3.org/2000/svg" xmlns:xlink="http://www.w3.org/1999/xlink">
 <defs>
  <style type="text/css">
*{stroke-linecap:butt;stroke-linejoin:round;}
  </style>
 </defs>
 <g id="figure_1">
  <g id="patch_1">
   <path d="M 0 288 
L 432 288 
L 432 0 
L 0 0 
z
" style="fill:#ffffff;"/>
  </g>
  <g id="axes_1">
   <g id="patch_2">
    <path d="M 54 252 
L 388.8 252 
L 388.8 34.56 
L 54 34.56 
z
" style="fill:#e0e2e3;"/>
   </g>
   <g id="matplotlib.axis_1">
    <g id="xtick_1">
     <g id="line2d_1">
      <defs>
       <path d="M 0 0 
L 0 6 
" id="mf21ba30274" style="stroke:#262626;stroke-width:1.25;"/>
      </defs>
      <g>
       <use style="fill:#262626;stroke:#262626;stroke-width:1.25;" x="57.486665" xlink:href="#mf21ba30274" y="252"/>
      </g>
     </g>
     <g id="text_1">
      <!-- 0 -->
      <defs>
       <path d="M 27.4375 71.875 
Q 37.84375 71.875 43.703125 64.453125 
Q 50.6875 55.671875 50.6875 35.296875 
Q 50.6875 14.984375 43.65625 6.109375 
Q 37.84375 -1.21875 27.4375 -1.21875 
Q 17 -1.21875 10.59375 6.8125 
Q 4.203125 14.84375 4.203125 35.453125 
Q 4.203125 55.671875 11.234375 64.546875 
Q 17.046875 71.875 27.4375 71.875 
z
M 27.4375 60.5 
Q 24.953125 60.5 23 58.90625 
Q 21.046875 57.328125 19.96875 53.21875 
Q 18.5625 47.90625 18.5625 35.296875 
Q 18.5625 22.703125 19.828125 17.984375 
Q 21.09375 13.28125 23.015625 11.71875 
Q 24.953125 10.15625 27.4375 10.15625 
Q 29.9375 10.15625 31.890625 11.734375 
Q 33.84375 13.328125 34.90625 17.4375 
Q 36.328125 22.703125 36.328125 35.296875 
Q 36.328125 47.90625 35.0625 52.609375 
Q 33.796875 57.328125 31.859375 58.90625 
Q 29.9375 60.5 27.4375 60.5 
z
" id="Arial-BoldMT-48"/>
      </defs>
      <g style="fill:#50444b;" transform="translate(54.428149 269.373594)scale(0.11 -0.11)">
       <use xlink:href="#Arial-BoldMT-48"/>
      </g>
     </g>
    </g>
    <g id="xtick_2">
     <g id="line2d_2">
      <g>
       <use style="fill:#262626;stroke:#262626;stroke-width:1.25;" x="117.759956" xlink:href="#mf21ba30274" y="252"/>
      </g>
     </g>
     <g id="text_2">
      <!-- 20 -->
      <defs>
       <path d="M 50.59375 12.75 
L 50.59375 0 
L 2.484375 0 
Q 3.265625 7.234375 7.171875 13.703125 
Q 11.078125 20.171875 22.609375 30.859375 
Q 31.890625 39.5 33.984375 42.578125 
Q 36.8125 46.828125 36.8125 50.984375 
Q 36.8125 55.5625 34.34375 58.03125 
Q 31.890625 60.5 27.546875 60.5 
Q 23.25 60.5 20.703125 57.90625 
Q 18.171875 55.328125 17.78125 49.3125 
L 4.109375 50.6875 
Q 5.328125 62.015625 11.765625 66.9375 
Q 18.21875 71.875 27.875 71.875 
Q 38.484375 71.875 44.53125 66.15625 
Q 50.59375 60.453125 50.59375 51.953125 
Q 50.59375 47.125 48.859375 42.75 
Q 47.125 38.375 43.359375 33.59375 
Q 40.875 30.421875 34.375 24.453125 
Q 27.875 18.5 26.140625 16.546875 
Q 24.421875 14.59375 23.34375 12.75 
z
" id="Arial-BoldMT-50"/>
      </defs>
      <g style="fill:#50444b;" transform="translate(111.642925 269.373594)scale(0.11 -0.11)">
       <use xlink:href="#Arial-BoldMT-50"/>
       <use x="55.615234" xlink:href="#Arial-BoldMT-48"/>
      </g>
     </g>
    </g>
    <g id="xtick_3">
     <g id="line2d_3">
      <g>
       <use style="fill:#262626;stroke:#262626;stroke-width:1.25;" x="178.033248" xlink:href="#mf21ba30274" y="252"/>
      </g>
     </g>
     <g id="text_3">
      <!-- 40 -->
      <defs>
       <path d="M 31.15625 0 
L 31.15625 14.40625 
L 1.859375 14.40625 
L 1.859375 26.421875 
L 32.90625 71.875 
L 44.4375 71.875 
L 44.4375 26.46875 
L 53.328125 26.46875 
L 53.328125 14.40625 
L 44.4375 14.40625 
L 44.4375 0 
z
M 31.15625 26.46875 
L 31.15625 50.921875 
L 14.703125 26.46875 
z
" id="Arial-BoldMT-52"/>
      </defs>
      <g style="fill:#50444b;" transform="translate(171.916217 269.373594)scale(0.11 -0.11)">
       <use xlink:href="#Arial-BoldMT-52"/>
       <use x="55.615234" xlink:href="#Arial-BoldMT-48"/>
      </g>
     </g>
    </g>
    <g id="xtick_4">
     <g id="line2d_4">
      <g>
       <use style="fill:#262626;stroke:#262626;stroke-width:1.25;" x="238.30654" xlink:href="#mf21ba30274" y="252"/>
      </g>
     </g>
     <g id="text_4">
      <!-- 60 -->
      <defs>
       <path d="M 50.734375 54.046875 
L 37.453125 52.59375 
Q 36.96875 56.6875 34.90625 58.640625 
Q 32.859375 60.59375 29.59375 60.59375 
Q 25.25 60.59375 22.234375 56.6875 
Q 19.234375 52.78125 18.453125 40.4375 
Q 23.578125 46.484375 31.203125 46.484375 
Q 39.796875 46.484375 45.921875 39.9375 
Q 52.046875 33.40625 52.046875 23.046875 
Q 52.046875 12.0625 45.59375 5.421875 
Q 39.15625 -1.21875 29.046875 -1.21875 
Q 18.21875 -1.21875 11.234375 7.203125 
Q 4.25 15.625 4.25 34.8125 
Q 4.25 54.5 11.515625 63.1875 
Q 18.796875 71.875 30.421875 71.875 
Q 38.578125 71.875 43.921875 67.3125 
Q 49.265625 62.75 50.734375 54.046875 
z
M 19.625 24.125 
Q 19.625 17.4375 22.703125 13.796875 
Q 25.78125 10.15625 29.734375 10.15625 
Q 33.546875 10.15625 36.078125 13.125 
Q 38.625 16.109375 38.625 22.90625 
Q 38.625 29.890625 35.890625 33.125 
Q 33.15625 36.375 29.046875 36.375 
Q 25.09375 36.375 22.359375 33.265625 
Q 19.625 30.171875 19.625 24.125 
z
" id="Arial-BoldMT-54"/>
      </defs>
      <g style="fill:#50444b;" transform="translate(232.189509 269.373594)scale(0.11 -0.11)">
       <use xlink:href="#Arial-BoldMT-54"/>
       <use x="55.615234" xlink:href="#Arial-BoldMT-48"/>
      </g>
     </g>
    </g>
    <g id="xtick_5">
     <g id="line2d_5">
      <g>
       <use style="fill:#262626;stroke:#262626;stroke-width:1.25;" x="298.579832" xlink:href="#mf21ba30274" y="252"/>
      </g>
     </g>
     <g id="text_5">
      <!-- 80 -->
      <defs>
       <path d="M 16.015625 38.625 
Q 10.6875 40.875 8.265625 44.796875 
Q 5.859375 48.734375 5.859375 53.421875 
Q 5.859375 61.421875 11.453125 66.640625 
Q 17.046875 71.875 27.34375 71.875 
Q 37.546875 71.875 43.1875 66.640625 
Q 48.828125 61.421875 48.828125 53.421875 
Q 48.828125 48.4375 46.234375 44.546875 
Q 43.65625 40.671875 38.96875 38.625 
Q 44.921875 36.234375 48.015625 31.640625 
Q 51.125 27.046875 51.125 21.046875 
Q 51.125 11.140625 44.796875 4.9375 
Q 38.484375 -1.265625 27.984375 -1.265625 
Q 18.21875 -1.265625 11.71875 3.859375 
Q 4.046875 9.90625 4.046875 20.453125 
Q 4.046875 26.265625 6.921875 31.125 
Q 9.8125 35.984375 16.015625 38.625 
z
M 18.84375 52.4375 
Q 18.84375 48.34375 21.15625 46.046875 
Q 23.484375 43.75 27.34375 43.75 
Q 31.25 43.75 33.59375 46.0625 
Q 35.9375 48.390625 35.9375 52.484375 
Q 35.9375 56.34375 33.609375 58.65625 
Q 31.296875 60.984375 27.484375 60.984375 
Q 23.53125 60.984375 21.1875 58.640625 
Q 18.84375 56.296875 18.84375 52.4375 
z
M 17.578125 21.78125 
Q 17.578125 16.109375 20.484375 12.9375 
Q 23.390625 9.765625 27.734375 9.765625 
Q 31.984375 9.765625 34.765625 12.8125 
Q 37.546875 15.875 37.546875 21.625 
Q 37.546875 26.65625 34.71875 29.703125 
Q 31.890625 32.765625 27.546875 32.765625 
Q 22.515625 32.765625 20.046875 29.296875 
Q 17.578125 25.828125 17.578125 21.78125 
z
" id="Arial-BoldMT-56"/>
      </defs>
      <g style="fill:#50444b;" transform="translate(292.462801 269.373594)scale(0.11 -0.11)">
       <use xlink:href="#Arial-BoldMT-56"/>
       <use x="55.615234" xlink:href="#Arial-BoldMT-48"/>
      </g>
     </g>
    </g>
    <g id="xtick_6">
     <g id="line2d_6">
      <g>
       <use style="fill:#262626;stroke:#262626;stroke-width:1.25;" x="358.853124" xlink:href="#mf21ba30274" y="252"/>
      </g>
     </g>
     <g id="text_6">
      <!-- 100 -->
      <defs>
       <path d="M 39.359375 0 
L 25.640625 0 
L 25.640625 51.703125 
Q 18.109375 44.671875 7.90625 41.3125 
L 7.90625 53.765625 
Q 13.28125 55.515625 19.578125 60.421875 
Q 25.875 65.328125 28.21875 71.875 
L 39.359375 71.875 
z
" id="Arial-BoldMT-49"/>
      </defs>
      <g style="fill:#50444b;" transform="translate(349.677577 269.373594)scale(0.11 -0.11)">
       <use xlink:href="#Arial-BoldMT-49"/>
       <use x="55.615234" xlink:href="#Arial-BoldMT-48"/>
       <use x="111.230469" xlink:href="#Arial-BoldMT-48"/>
      </g>
     </g>
    </g>
    <g id="text_7">
     <!-- Industrial Output -->
     <defs>
      <path d="M 6.84375 0 
L 6.84375 71.578125 
L 21.296875 71.578125 
L 21.296875 0 
z
" id="Arial-BoldMT-73"/>
      <path d="M 54.34375 0 
L 40.625 0 
L 40.625 26.46875 
Q 40.625 34.859375 39.75 37.328125 
Q 38.875 39.796875 36.890625 41.15625 
Q 34.90625 42.53125 32.125 42.53125 
Q 28.5625 42.53125 25.734375 40.578125 
Q 22.90625 38.625 21.84375 35.390625 
Q 20.796875 32.171875 20.796875 23.484375 
L 20.796875 0 
L 7.078125 0 
L 7.078125 51.859375 
L 19.828125 51.859375 
L 19.828125 44.234375 
Q 26.609375 53.03125 36.921875 53.03125 
Q 41.453125 53.03125 45.203125 51.390625 
Q 48.96875 49.75 50.890625 47.203125 
Q 52.828125 44.671875 53.578125 41.453125 
Q 54.34375 38.234375 54.34375 32.234375 
z
" id="Arial-BoldMT-110"/>
      <path d="M 54.734375 0 
L 42 0 
L 42 7.625 
Q 38.8125 3.171875 34.484375 1 
Q 30.171875 -1.171875 25.78125 -1.171875 
Q 16.84375 -1.171875 10.46875 6.03125 
Q 4.109375 13.234375 4.109375 26.125 
Q 4.109375 39.3125 10.296875 46.171875 
Q 16.5 53.03125 25.984375 53.03125 
Q 34.671875 53.03125 41.015625 45.796875 
L 41.015625 71.578125 
L 54.734375 71.578125 
z
M 18.109375 27.046875 
Q 18.109375 18.75 20.40625 15.046875 
Q 23.734375 9.671875 29.6875 9.671875 
Q 34.421875 9.671875 37.734375 13.6875 
Q 41.0625 17.71875 41.0625 25.734375 
Q 41.0625 34.671875 37.84375 38.59375 
Q 34.625 42.53125 29.59375 42.53125 
Q 24.703125 42.53125 21.40625 38.640625 
Q 18.109375 34.765625 18.109375 27.046875 
z
" id="Arial-BoldMT-100"/>
      <path d="M 41.3125 0 
L 41.3125 7.765625 
Q 38.484375 3.609375 33.859375 1.21875 
Q 29.25 -1.171875 24.125 -1.171875 
Q 18.890625 -1.171875 14.734375 1.125 
Q 10.59375 3.421875 8.734375 7.5625 
Q 6.890625 11.71875 6.890625 19.046875 
L 6.890625 51.859375 
L 20.609375 51.859375 
L 20.609375 28.03125 
Q 20.609375 17.09375 21.359375 14.625 
Q 22.125 12.15625 24.125 10.71875 
Q 26.125 9.28125 29.203125 9.28125 
Q 32.71875 9.28125 35.5 11.203125 
Q 38.28125 13.140625 39.296875 15.984375 
Q 40.328125 18.84375 40.328125 29.984375 
L 40.328125 51.859375 
L 54.046875 51.859375 
L 54.046875 0 
z
" id="Arial-BoldMT-117"/>
      <path d="M 2.34375 14.796875 
L 16.109375 16.890625 
Q 17 12.890625 19.671875 10.8125 
Q 22.359375 8.734375 27.203125 8.734375 
Q 32.515625 8.734375 35.203125 10.6875 
Q 37.015625 12.0625 37.015625 14.359375 
Q 37.015625 15.921875 36.03125 16.9375 
Q 35.015625 17.921875 31.453125 18.75 
Q 14.84375 22.40625 10.40625 25.4375 
Q 4.25 29.640625 4.25 37.109375 
Q 4.25 43.84375 9.5625 48.4375 
Q 14.890625 53.03125 26.078125 53.03125 
Q 36.71875 53.03125 41.890625 49.5625 
Q 47.078125 46.09375 49.03125 39.3125 
L 36.078125 36.921875 
Q 35.25 39.9375 32.921875 41.546875 
Q 30.609375 43.171875 26.3125 43.171875 
Q 20.90625 43.171875 18.5625 41.65625 
Q 17 40.578125 17 38.875 
Q 17 37.40625 18.359375 36.375 
Q 20.21875 35.015625 31.171875 32.515625 
Q 42.140625 30.03125 46.484375 26.421875 
Q 50.78125 22.75 50.78125 16.21875 
Q 50.78125 9.078125 44.828125 3.953125 
Q 38.875 -1.171875 27.203125 -1.171875 
Q 16.609375 -1.171875 10.421875 3.125 
Q 4.25 7.421875 2.34375 14.796875 
z
" id="Arial-BoldMT-115"/>
      <path d="M 30.953125 51.859375 
L 30.953125 40.921875 
L 21.578125 40.921875 
L 21.578125 20.015625 
Q 21.578125 13.671875 21.84375 12.625 
Q 22.125 11.578125 23.078125 10.890625 
Q 24.03125 10.203125 25.390625 10.203125 
Q 27.296875 10.203125 30.90625 11.53125 
L 32.078125 0.875 
Q 27.296875 -1.171875 21.234375 -1.171875 
Q 17.53125 -1.171875 14.546875 0.0625 
Q 11.578125 1.3125 10.1875 3.296875 
Q 8.796875 5.28125 8.25 8.640625 
Q 7.8125 11.03125 7.8125 18.3125 
L 7.8125 40.921875 
L 1.515625 40.921875 
L 1.515625 51.859375 
L 7.8125 51.859375 
L 7.8125 62.15625 
L 21.578125 70.171875 
L 21.578125 51.859375 
z
" id="Arial-BoldMT-116"/>
      <path d="M 20.3125 0 
L 6.59375 0 
L 6.59375 51.859375 
L 19.34375 51.859375 
L 19.34375 44.484375 
Q 22.609375 49.703125 25.21875 51.359375 
Q 27.828125 53.03125 31.15625 53.03125 
Q 35.84375 53.03125 40.1875 50.4375 
L 35.9375 38.484375 
Q 32.46875 40.71875 29.5 40.71875 
Q 26.609375 40.71875 24.609375 39.125 
Q 22.609375 37.546875 21.453125 33.390625 
Q 20.3125 29.25 20.3125 16.015625 
z
" id="Arial-BoldMT-114"/>
      <path d="M 7.171875 58.890625 
L 7.171875 71.578125 
L 20.90625 71.578125 
L 20.90625 58.890625 
z
M 7.171875 0 
L 7.171875 51.859375 
L 20.90625 51.859375 
L 20.90625 0 
z
" id="Arial-BoldMT-105"/>
      <path d="M 17.4375 36.03125 
L 4.984375 38.28125 
Q 7.078125 45.796875 12.203125 49.40625 
Q 17.328125 53.03125 27.4375 53.03125 
Q 36.625 53.03125 41.109375 50.859375 
Q 45.609375 48.6875 47.4375 45.34375 
Q 49.265625 42 49.265625 33.0625 
L 49.125 17.046875 
Q 49.125 10.203125 49.78125 6.953125 
Q 50.4375 3.71875 52.25 0 
L 38.671875 0 
Q 38.140625 1.375 37.359375 4.046875 
Q 37.015625 5.28125 36.859375 5.671875 
Q 33.34375 2.25 29.34375 0.53125 
Q 25.34375 -1.171875 20.796875 -1.171875 
Q 12.796875 -1.171875 8.171875 3.171875 
Q 3.5625 7.515625 3.5625 14.15625 
Q 3.5625 18.5625 5.65625 22 
Q 7.765625 25.4375 11.546875 27.265625 
Q 15.328125 29.109375 22.46875 30.46875 
Q 32.078125 32.28125 35.796875 33.84375 
L 35.796875 35.203125 
Q 35.796875 39.15625 33.84375 40.84375 
Q 31.890625 42.53125 26.46875 42.53125 
Q 22.796875 42.53125 20.75 41.09375 
Q 18.703125 39.65625 17.4375 36.03125 
z
M 35.796875 24.90625 
Q 33.15625 24.03125 27.4375 22.796875 
Q 21.734375 21.578125 19.96875 20.40625 
Q 17.28125 18.5 17.28125 15.578125 
Q 17.28125 12.703125 19.421875 10.59375 
Q 21.578125 8.5 24.90625 8.5 
Q 28.609375 8.5 31.984375 10.9375 
Q 34.46875 12.796875 35.25 15.484375 
Q 35.796875 17.234375 35.796875 22.171875 
z
" id="Arial-BoldMT-97"/>
      <path d="M 7.171875 0 
L 7.171875 71.578125 
L 20.90625 71.578125 
L 20.90625 0 
z
" id="Arial-BoldMT-108"/>
      <path id="Arial-BoldMT-32"/>
      <path d="M 4.34375 35.359375 
Q 4.34375 46.296875 7.625 53.71875 
Q 10.0625 59.1875 14.28125 63.53125 
Q 18.5 67.875 23.53125 69.96875 
Q 30.21875 72.796875 38.96875 72.796875 
Q 54.78125 72.796875 64.28125 62.984375 
Q 73.78125 53.171875 73.78125 35.6875 
Q 73.78125 18.359375 64.359375 8.5625 
Q 54.9375 -1.21875 39.15625 -1.21875 
Q 23.1875 -1.21875 13.765625 8.515625 
Q 4.34375 18.265625 4.34375 35.359375 
z
M 19.234375 35.84375 
Q 19.234375 23.6875 24.84375 17.40625 
Q 30.46875 11.140625 39.109375 11.140625 
Q 47.75 11.140625 53.296875 17.359375 
Q 58.84375 23.578125 58.84375 36.03125 
Q 58.84375 48.34375 53.4375 54.390625 
Q 48.046875 60.453125 39.109375 60.453125 
Q 30.171875 60.453125 24.703125 54.3125 
Q 19.234375 48.1875 19.234375 35.84375 
z
" id="Arial-BoldMT-79"/>
      <path d="M 6.78125 51.859375 
L 19.578125 51.859375 
L 19.578125 44.234375 
Q 22.078125 48.140625 26.3125 50.578125 
Q 30.5625 53.03125 35.75 53.03125 
Q 44.78125 53.03125 51.078125 45.953125 
Q 57.375 38.875 57.375 26.21875 
Q 57.375 13.234375 51.015625 6.03125 
Q 44.671875 -1.171875 35.640625 -1.171875 
Q 31.34375 -1.171875 27.84375 0.53125 
Q 24.359375 2.25 20.515625 6.390625 
L 20.515625 -19.734375 
L 6.78125 -19.734375 
z
M 20.359375 26.8125 
Q 20.359375 18.0625 23.828125 13.890625 
Q 27.296875 9.71875 32.28125 9.71875 
Q 37.0625 9.71875 40.234375 13.546875 
Q 43.40625 17.390625 43.40625 26.125 
Q 43.40625 34.28125 40.125 38.234375 
Q 36.859375 42.1875 32.03125 42.1875 
Q 27 42.1875 23.671875 38.296875 
Q 20.359375 34.421875 20.359375 26.8125 
z
" id="Arial-BoldMT-112"/>
     </defs>
     <g style="fill:#50444b;" transform="translate(173.075625 284.28)scale(0.12 -0.12)">
      <use xlink:href="#Arial-BoldMT-73"/>
      <use x="27.783203" xlink:href="#Arial-BoldMT-110"/>
      <use x="88.867188" xlink:href="#Arial-BoldMT-100"/>
      <use x="149.951172" xlink:href="#Arial-BoldMT-117"/>
      <use x="211.035156" xlink:href="#Arial-BoldMT-115"/>
      <use x="266.650391" xlink:href="#Arial-BoldMT-116"/>
      <use x="299.951172" xlink:href="#Arial-BoldMT-114"/>
      <use x="338.867188" xlink:href="#Arial-BoldMT-105"/>
      <use x="366.650391" xlink:href="#Arial-BoldMT-97"/>
      <use x="422.265625" xlink:href="#Arial-BoldMT-108"/>
      <use x="450.048828" xlink:href="#Arial-BoldMT-32"/>
      <use x="477.832031" xlink:href="#Arial-BoldMT-79"/>
      <use x="555.615234" xlink:href="#Arial-BoldMT-117"/>
      <use x="616.699219" xlink:href="#Arial-BoldMT-116"/>
      <use x="650" xlink:href="#Arial-BoldMT-112"/>
      <use x="711.083984" xlink:href="#Arial-BoldMT-117"/>
      <use x="772.167969" xlink:href="#Arial-BoldMT-116"/>
     </g>
    </g>
   </g>
   <g id="matplotlib.axis_2">
    <g id="ytick_1">
     <g id="line2d_7">
      <defs>
       <path d="M 0 0 
L -6 0 
" id="m7c49164450" style="stroke:#262626;stroke-width:1.25;"/>
      </defs>
      <g>
       <use style="fill:#262626;stroke:#262626;stroke-width:1.25;" x="54" xlink:href="#m7c49164450" y="226.564335"/>
      </g>
     </g>
     <g id="text_8">
      <!-- 47.0 -->
      <defs>
       <path d="M 4.25 57.859375 
L 4.25 70.609375 
L 51.171875 70.609375 
L 51.171875 60.640625 
Q 45.359375 54.9375 39.34375 44.234375 
Q 33.34375 33.546875 30.1875 21.5 
Q 27.046875 9.46875 27.09375 0 
L 13.875 0 
Q 14.203125 14.84375 19.984375 30.265625 
Q 25.78125 45.703125 35.453125 57.859375 
z
" id="Arial-BoldMT-55"/>
       <path d="M 7.171875 0 
L 7.171875 13.71875 
L 20.90625 13.71875 
L 20.90625 0 
z
" id="Arial-BoldMT-46"/>
      </defs>
      <g style="fill:#50444b;" transform="translate(23.092969 230.501132)scale(0.11 -0.11)">
       <use xlink:href="#Arial-BoldMT-52"/>
       <use x="55.615234" xlink:href="#Arial-BoldMT-55"/>
       <use x="111.230469" xlink:href="#Arial-BoldMT-46"/>
       <use x="139.013672" xlink:href="#Arial-BoldMT-48"/>
      </g>
     </g>
    </g>
    <g id="ytick_2">
     <g id="line2d_8">
      <g>
       <use style="fill:#262626;stroke:#262626;stroke-width:1.25;" x="54" xlink:href="#m7c49164450" y="193.673576"/>
      </g>
     </g>
     <g id="text_9">
      <!-- 47.5 -->
      <defs>
       <path d="M 4.4375 18.40625 
L 18.109375 19.828125 
Q 18.703125 15.1875 21.578125 12.46875 
Q 24.46875 9.765625 28.21875 9.765625 
Q 32.515625 9.765625 35.5 13.25 
Q 38.484375 16.75 38.484375 23.78125 
Q 38.484375 30.375 35.515625 33.671875 
Q 32.5625 36.96875 27.828125 36.96875 
Q 21.921875 36.96875 17.234375 31.734375 
L 6.109375 33.34375 
L 13.140625 70.609375 
L 49.421875 70.609375 
L 49.421875 57.765625 
L 23.53125 57.765625 
L 21.390625 45.609375 
Q 25.984375 47.90625 30.765625 47.90625 
Q 39.890625 47.90625 46.234375 41.265625 
Q 52.59375 34.625 52.59375 24.03125 
Q 52.59375 15.1875 47.46875 8.25 
Q 40.484375 -1.21875 28.078125 -1.21875 
Q 18.171875 -1.21875 11.921875 4.09375 
Q 5.671875 9.421875 4.4375 18.40625 
z
" id="Arial-BoldMT-53"/>
      </defs>
      <g style="fill:#50444b;" transform="translate(23.092969 197.610373)scale(0.11 -0.11)">
       <use xlink:href="#Arial-BoldMT-52"/>
       <use x="55.615234" xlink:href="#Arial-BoldMT-55"/>
       <use x="111.230469" xlink:href="#Arial-BoldMT-46"/>
       <use x="139.013672" xlink:href="#Arial-BoldMT-53"/>
      </g>
     </g>
    </g>
    <g id="ytick_3">
     <g id="line2d_9">
      <g>
       <use style="fill:#262626;stroke:#262626;stroke-width:1.25;" x="54" xlink:href="#m7c49164450" y="160.782817"/>
      </g>
     </g>
     <g id="text_10">
      <!-- 48.0 -->
      <g style="fill:#50444b;" transform="translate(23.092969 164.719614)scale(0.11 -0.11)">
       <use xlink:href="#Arial-BoldMT-52"/>
       <use x="55.615234" xlink:href="#Arial-BoldMT-56"/>
       <use x="111.230469" xlink:href="#Arial-BoldMT-46"/>
       <use x="139.013672" xlink:href="#Arial-BoldMT-48"/>
      </g>
     </g>
    </g>
    <g id="ytick_4">
     <g id="line2d_10">
      <g>
       <use style="fill:#262626;stroke:#262626;stroke-width:1.25;" x="54" xlink:href="#m7c49164450" y="127.892059"/>
      </g>
     </g>
     <g id="text_11">
      <!-- 48.5 -->
      <g style="fill:#50444b;" transform="translate(23.092969 131.828855)scale(0.11 -0.11)">
       <use xlink:href="#Arial-BoldMT-52"/>
       <use x="55.615234" xlink:href="#Arial-BoldMT-56"/>
       <use x="111.230469" xlink:href="#Arial-BoldMT-46"/>
       <use x="139.013672" xlink:href="#Arial-BoldMT-53"/>
      </g>
     </g>
    </g>
    <g id="ytick_5">
     <g id="line2d_11">
      <g>
       <use style="fill:#262626;stroke:#262626;stroke-width:1.25;" x="54" xlink:href="#m7c49164450" y="95.0013"/>
      </g>
     </g>
     <g id="text_12">
      <!-- 49.0 -->
      <defs>
       <path d="M 4.546875 16.546875 
L 17.828125 18.015625 
Q 18.3125 13.96875 20.359375 12.015625 
Q 22.40625 10.0625 25.78125 10.0625 
Q 30.03125 10.0625 33 13.96875 
Q 35.984375 17.875 36.8125 30.171875 
Q 31.640625 24.171875 23.875 24.171875 
Q 15.4375 24.171875 9.296875 30.6875 
Q 3.171875 37.203125 3.171875 47.65625 
Q 3.171875 58.546875 9.640625 65.203125 
Q 16.109375 71.875 26.125 71.875 
Q 37.015625 71.875 44 63.453125 
Q 50.984375 55.03125 50.984375 35.75 
Q 50.984375 16.109375 43.703125 7.421875 
Q 36.421875 -1.265625 24.75 -1.265625 
Q 16.359375 -1.265625 11.171875 3.203125 
Q 6 7.671875 4.546875 16.546875 
z
M 35.59375 46.53125 
Q 35.59375 53.171875 32.546875 56.828125 
Q 29.5 60.5 25.484375 60.5 
Q 21.6875 60.5 19.171875 57.5 
Q 16.65625 54.5 16.65625 47.65625 
Q 16.65625 40.71875 19.390625 37.46875 
Q 22.125 34.234375 26.21875 34.234375 
Q 30.171875 34.234375 32.875 37.359375 
Q 35.59375 40.484375 35.59375 46.53125 
z
" id="Arial-BoldMT-57"/>
      </defs>
      <g style="fill:#50444b;" transform="translate(23.092969 98.938097)scale(0.11 -0.11)">
       <use xlink:href="#Arial-BoldMT-52"/>
       <use x="55.615234" xlink:href="#Arial-BoldMT-57"/>
       <use x="111.230469" xlink:href="#Arial-BoldMT-46"/>
       <use x="139.013672" xlink:href="#Arial-BoldMT-48"/>
      </g>
     </g>
    </g>
    <g id="ytick_6">
     <g id="line2d_12">
      <g>
       <use style="fill:#262626;stroke:#262626;stroke-width:1.25;" x="54" xlink:href="#m7c49164450" y="62.110541"/>
      </g>
     </g>
     <g id="text_13">
      <!-- 49.5 -->
      <g style="fill:#50444b;" transform="translate(23.092969 66.047338)scale(0.11 -0.11)">
       <use xlink:href="#Arial-BoldMT-52"/>
       <use x="55.615234" xlink:href="#Arial-BoldMT-57"/>
       <use x="111.230469" xlink:href="#Arial-BoldMT-46"/>
       <use x="139.013672" xlink:href="#Arial-BoldMT-53"/>
      </g>
     </g>
    </g>
    <g id="text_14">
     <!-- Average Temperature (F) -->
     <defs>
      <path d="M 71.828125 0 
L 56.109375 0 
L 49.859375 16.265625 
L 21.234375 16.265625 
L 15.328125 0 
L 0 0 
L 27.875 71.578125 
L 43.171875 71.578125 
z
M 45.21875 28.328125 
L 35.359375 54.890625 
L 25.6875 28.328125 
z
" id="Arial-BoldMT-65"/>
      <path d="M 21.4375 0 
L 0.53125 51.859375 
L 14.9375 51.859375 
L 24.703125 25.390625 
L 27.546875 16.546875 
Q 28.65625 19.921875 28.953125 21 
Q 29.640625 23.1875 30.421875 25.390625 
L 40.28125 51.859375 
L 54.390625 51.859375 
L 33.796875 0 
z
" id="Arial-BoldMT-118"/>
      <path d="M 37.203125 16.5 
L 50.875 14.203125 
Q 48.25 6.6875 42.546875 2.75 
Q 36.859375 -1.171875 28.328125 -1.171875 
Q 14.796875 -1.171875 8.296875 7.671875 
Q 3.171875 14.75 3.171875 25.53125 
Q 3.171875 38.421875 9.90625 45.71875 
Q 16.65625 53.03125 26.953125 53.03125 
Q 38.53125 53.03125 45.21875 45.390625 
Q 51.90625 37.75 51.609375 21.96875 
L 17.234375 21.96875 
Q 17.390625 15.875 20.5625 12.46875 
Q 23.734375 9.078125 28.46875 9.078125 
Q 31.6875 9.078125 33.875 10.828125 
Q 36.078125 12.59375 37.203125 16.5 
z
M 37.984375 30.375 
Q 37.84375 36.328125 34.90625 39.421875 
Q 31.984375 42.53125 27.78125 42.53125 
Q 23.296875 42.53125 20.359375 39.265625 
Q 17.4375 35.984375 17.484375 30.375 
z
" id="Arial-BoldMT-101"/>
      <path d="M 5.90625 -3.421875 
L 21.578125 -5.328125 
Q 21.96875 -8.0625 23.390625 -9.078125 
Q 25.34375 -10.546875 29.546875 -10.546875 
Q 34.90625 -10.546875 37.59375 -8.9375 
Q 39.40625 -7.859375 40.328125 -5.46875 
Q 40.96875 -3.765625 40.96875 0.828125 
L 40.96875 8.40625 
Q 34.8125 0 25.4375 0 
Q 14.984375 0 8.890625 8.84375 
Q 4.109375 15.828125 4.109375 26.21875 
Q 4.109375 39.265625 10.375 46.140625 
Q 16.65625 53.03125 25.984375 53.03125 
Q 35.59375 53.03125 41.84375 44.578125 
L 41.84375 51.859375 
L 54.6875 51.859375 
L 54.6875 5.328125 
Q 54.6875 -3.859375 53.171875 -8.390625 
Q 51.65625 -12.9375 48.921875 -15.515625 
Q 46.1875 -18.109375 41.625 -19.578125 
Q 37.0625 -21.046875 30.078125 -21.046875 
Q 16.890625 -21.046875 11.375 -16.53125 
Q 5.859375 -12.015625 5.859375 -5.078125 
Q 5.859375 -4.390625 5.90625 -3.421875 
z
M 18.171875 27 
Q 18.171875 18.75 21.359375 14.90625 
Q 24.5625 11.078125 29.25 11.078125 
Q 34.28125 11.078125 37.75 15.015625 
Q 41.21875 18.953125 41.21875 26.65625 
Q 41.21875 34.71875 37.890625 38.625 
Q 34.578125 42.53125 29.5 42.53125 
Q 24.5625 42.53125 21.359375 38.6875 
Q 18.171875 34.859375 18.171875 27 
z
" id="Arial-BoldMT-103"/>
      <path d="M 23.390625 0 
L 23.390625 59.46875 
L 2.15625 59.46875 
L 2.15625 71.578125 
L 59.03125 71.578125 
L 59.03125 59.46875 
L 37.84375 59.46875 
L 37.84375 0 
z
" id="Arial-BoldMT-84"/>
      <path d="M 6.15625 51.859375 
L 18.796875 51.859375 
L 18.796875 44.78125 
Q 25.59375 53.03125 34.96875 53.03125 
Q 39.9375 53.03125 43.59375 50.96875 
Q 47.265625 48.921875 49.609375 44.78125 
Q 53.03125 48.921875 56.984375 50.96875 
Q 60.9375 53.03125 65.4375 53.03125 
Q 71.140625 53.03125 75.09375 50.703125 
Q 79.046875 48.390625 81 43.890625 
Q 82.421875 40.578125 82.421875 33.15625 
L 82.421875 0 
L 68.703125 0 
L 68.703125 29.640625 
Q 68.703125 37.359375 67.28125 39.59375 
Q 65.375 42.53125 61.421875 42.53125 
Q 58.546875 42.53125 56 40.765625 
Q 53.46875 39.015625 52.34375 35.625 
Q 51.21875 32.234375 51.21875 24.90625 
L 51.21875 0 
L 37.5 0 
L 37.5 28.421875 
Q 37.5 35.984375 36.765625 38.171875 
Q 36.03125 40.375 34.484375 41.453125 
Q 32.953125 42.53125 30.328125 42.53125 
Q 27.15625 42.53125 24.609375 40.8125 
Q 22.078125 39.109375 20.96875 35.890625 
Q 19.875 32.671875 19.875 25.203125 
L 19.875 0 
L 6.15625 0 
z
" id="Arial-BoldMT-109"/>
      <path d="M 29.9375 -21.046875 
L 20.515625 -21.046875 
Q 13.03125 -9.765625 9.125 2.390625 
Q 5.21875 14.546875 5.21875 25.921875 
Q 5.21875 40.046875 10.0625 52.640625 
Q 14.265625 63.578125 20.703125 72.796875 
L 30.078125 72.796875 
Q 23.390625 58.015625 20.875 47.625 
Q 18.359375 37.25 18.359375 25.640625 
Q 18.359375 17.625 19.84375 9.21875 
Q 21.34375 0.828125 23.921875 -6.734375 
Q 25.640625 -11.71875 29.9375 -21.046875 
z
" id="Arial-BoldMT-40"/>
      <path d="M 7.375 0 
L 7.375 71.578125 
L 56.453125 71.578125 
L 56.453125 59.46875 
L 21.828125 59.46875 
L 21.828125 42.53125 
L 51.703125 42.53125 
L 51.703125 30.421875 
L 21.828125 30.421875 
L 21.828125 0 
z
" id="Arial-BoldMT-70"/>
      <path d="M 3.375 -21.046875 
Q 7.421875 -12.359375 9.078125 -7.71875 
Q 10.75 -3.078125 12.15625 2.96875 
Q 13.578125 9.03125 14.25 14.46875 
Q 14.9375 19.921875 14.9375 25.640625 
Q 14.9375 37.25 12.453125 47.625 
Q 9.96875 58.015625 3.265625 72.796875 
L 12.59375 72.796875 
Q 19.96875 62.3125 24.046875 50.53125 
Q 28.125 38.765625 28.125 26.65625 
Q 28.125 16.453125 24.90625 4.78125 
Q 21.234375 -8.296875 12.84375 -21.046875 
z
" id="Arial-BoldMT-41"/>
     </defs>
     <g style="fill:#50444b;" transform="translate(16.567344 214.288125)rotate(-90)scale(0.12 -0.12)">
      <use xlink:href="#Arial-BoldMT-65"/>
      <use x="72.169922" xlink:href="#Arial-BoldMT-118"/>
      <use x="127.785156" xlink:href="#Arial-BoldMT-101"/>
      <use x="183.400391" xlink:href="#Arial-BoldMT-114"/>
      <use x="222.316406" xlink:href="#Arial-BoldMT-97"/>
      <use x="277.931641" xlink:href="#Arial-BoldMT-103"/>
      <use x="339.015625" xlink:href="#Arial-BoldMT-101"/>
      <use x="394.630859" xlink:href="#Arial-BoldMT-32"/>
      <use x="422.414062" xlink:href="#Arial-BoldMT-84"/>
      <use x="483.388672" xlink:href="#Arial-BoldMT-101"/>
      <use x="539.003906" xlink:href="#Arial-BoldMT-109"/>
      <use x="627.919922" xlink:href="#Arial-BoldMT-112"/>
      <use x="689.003906" xlink:href="#Arial-BoldMT-101"/>
      <use x="744.619141" xlink:href="#Arial-BoldMT-114"/>
      <use x="783.535156" xlink:href="#Arial-BoldMT-97"/>
      <use x="839.150391" xlink:href="#Arial-BoldMT-116"/>
      <use x="872.451172" xlink:href="#Arial-BoldMT-117"/>
      <use x="933.535156" xlink:href="#Arial-BoldMT-114"/>
      <use x="972.451172" xlink:href="#Arial-BoldMT-101"/>
      <use x="1028.066406" xlink:href="#Arial-BoldMT-32"/>
      <use x="1055.849609" xlink:href="#Arial-BoldMT-40"/>
      <use x="1089.150391" xlink:href="#Arial-BoldMT-70"/>
      <use x="1150.234375" xlink:href="#Arial-BoldMT-41"/>
     </g>
    </g>
   </g>
   <g id="PathCollection_1">
    <defs>
     <path d="M 0 3 
C 0.795609 3 1.55874 2.683901 2.12132 2.12132 
C 2.683901 1.55874 3 0.795609 3 0 
C 3 -0.795609 2.683901 -1.55874 2.12132 -2.12132 
C 1.55874 -2.683901 0.795609 -3 0 -3 
C -0.795609 -3 -1.55874 -2.683901 -2.12132 -2.12132 
C -2.683901 -1.55874 -3 -0.795609 -3 0 
C -3 0.795609 -2.683901 1.55874 -2.12132 2.12132 
C -1.55874 2.683901 -0.795609 3 0 3 
z
" id="m203acaf007" style="stroke:#7c0847;stroke-opacity:0.8;"/>
    </defs>
    <g clip-path="url(#paded319e90)">
     <use style="fill:#7c0847;fill-opacity:0.8;stroke:#7c0847;stroke-opacity:0.8;" x="72.387999" xlink:href="#m203acaf007" y="220.772272"/>
     <use style="fill:#7c0847;fill-opacity:0.8;stroke:#7c0847;stroke-opacity:0.8;" x="72.976085" xlink:href="#m203acaf007" y="223.55483"/>
     <use style="fill:#7c0847;fill-opacity:0.8;stroke:#7c0847;stroke-opacity:0.8;" x="69.351099" xlink:href="#m203acaf007" y="198.423002"/>
     <use style="fill:#7c0847;fill-opacity:0.8;stroke:#7c0847;stroke-opacity:0.8;" x="72.760354" xlink:href="#m203acaf007" y="217.723299"/>
     <use style="fill:#7c0847;fill-opacity:0.8;stroke:#7c0847;stroke-opacity:0.8;" x="75.545776" xlink:href="#m203acaf007" y="216.04587"/>
     <use style="fill:#7c0847;fill-opacity:0.8;stroke:#7c0847;stroke-opacity:0.8;" x="74.40874" xlink:href="#m203acaf007" y="206.020767"/>
     <use style="fill:#7c0847;fill-opacity:0.8;stroke:#7c0847;stroke-opacity:0.8;" x="76.265359" xlink:href="#m203acaf007" y="202.754714"/>
     <use style="fill:#7c0847;fill-opacity:0.8;stroke:#7c0847;stroke-opacity:0.8;" x="77.289414" xlink:href="#m203acaf007" y="179.734472"/>
     <use style="fill:#7c0847;fill-opacity:0.8;stroke:#7c0847;stroke-opacity:0.8;" x="77.228237" xlink:href="#m203acaf007" y="204.215064"/>
     <use style="fill:#7c0847;fill-opacity:0.8;stroke:#7c0847;stroke-opacity:0.8;" x="78.184399" xlink:href="#m203acaf007" y="191.180456"/>
     <use style="fill:#7c0847;fill-opacity:0.8;stroke:#7c0847;stroke-opacity:0.8;" x="80.417302" xlink:href="#m203acaf007" y="237.32948"/>
     <use style="fill:#7c0847;fill-opacity:0.8;stroke:#7c0847;stroke-opacity:0.8;" x="76.381683" xlink:href="#m203acaf007" y="191.012714"/>
     <use style="fill:#7c0847;fill-opacity:0.8;stroke:#7c0847;stroke-opacity:0.8;" x="73.051852" xlink:href="#m203acaf007" y="180.869204"/>
     <use style="fill:#7c0847;fill-opacity:0.8;stroke:#7c0847;stroke-opacity:0.8;" x="69.565176" xlink:href="#m203acaf007" y="182.526898"/>
     <use style="fill:#7c0847;fill-opacity:0.8;stroke:#7c0847;stroke-opacity:0.8;" x="71.850578" xlink:href="#m203acaf007" y="225.982168"/>
     <use style="fill:#7c0847;fill-opacity:0.8;stroke:#7c0847;stroke-opacity:0.8;" x="73.098036" xlink:href="#m203acaf007" y="191.634349"/>
     <use style="fill:#7c0847;fill-opacity:0.8;stroke:#7c0847;stroke-opacity:0.8;" x="75.716389" xlink:href="#m203acaf007" y="204.964973"/>
     <use style="fill:#7c0847;fill-opacity:0.8;stroke:#7c0847;stroke-opacity:0.8;" x="79.115623" xlink:href="#m203acaf007" y="200.435916"/>
     <use style="fill:#7c0847;fill-opacity:0.8;stroke:#7c0847;stroke-opacity:0.8;" x="81.136308" xlink:href="#m203acaf007" y="183.345878"/>
     <use style="fill:#7c0847;fill-opacity:0.8;stroke:#7c0847;stroke-opacity:0.8;" x="75.913182" xlink:href="#m203acaf007" y="163.769298"/>
     <use style="fill:#7c0847;fill-opacity:0.8;stroke:#7c0847;stroke-opacity:0.8;" x="79.740596" xlink:href="#m203acaf007" y="176.00466"/>
     <use style="fill:#7c0847;fill-opacity:0.8;stroke:#7c0847;stroke-opacity:0.8;" x="83.481706" xlink:href="#m203acaf007" y="175.491565"/>
     <use style="fill:#7c0847;fill-opacity:0.8;stroke:#7c0847;stroke-opacity:0.8;" x="90.50281" xlink:href="#m203acaf007" y="175.017938"/>
     <use style="fill:#7c0847;fill-opacity:0.8;stroke:#7c0847;stroke-opacity:0.8;" x="95.690731" xlink:href="#m203acaf007" y="179.783809"/>
     <use style="fill:#7c0847;fill-opacity:0.8;stroke:#7c0847;stroke-opacity:0.8;" x="104.471231" xlink:href="#m203acaf007" y="176.626296"/>
     <use style="fill:#7c0847;fill-opacity:0.8;stroke:#7c0847;stroke-opacity:0.8;" x="108.150473" xlink:href="#m203acaf007" y="165.979557"/>
     <use style="fill:#7c0847;fill-opacity:0.8;stroke:#7c0847;stroke-opacity:0.8;" x="100.274839" xlink:href="#m203acaf007" y="196.785042"/>
     <use style="fill:#7c0847;fill-opacity:0.8;stroke:#7c0847;stroke-opacity:0.8;" x="93.773873" xlink:href="#m203acaf007" y="185.881755"/>
     <use style="fill:#7c0847;fill-opacity:0.8;stroke:#7c0847;stroke-opacity:0.8;" x="98.152993" xlink:href="#m203acaf007" y="171.653213"/>
     <use style="fill:#7c0847;fill-opacity:0.8;stroke:#7c0847;stroke-opacity:0.8;" x="99.780778" xlink:href="#m203acaf007" y="177.613019"/>
     <use style="fill:#7c0847;fill-opacity:0.8;stroke:#7c0847;stroke-opacity:0.8;" x="97.438735" xlink:href="#m203acaf007" y="196.558096"/>
     <use style="fill:#7c0847;fill-opacity:0.8;stroke:#7c0847;stroke-opacity:0.8;" x="101.750573" xlink:href="#m203acaf007" y="222.785187"/>
     <use style="fill:#7c0847;fill-opacity:0.8;stroke:#7c0847;stroke-opacity:0.8;" x="106.661409" xlink:href="#m203acaf007" y="191.9501"/>
     <use style="fill:#7c0847;fill-opacity:0.8;stroke:#7c0847;stroke-opacity:0.8;" x="108.977432" xlink:href="#m203acaf007" y="190.460149"/>
     <use style="fill:#7c0847;fill-opacity:0.8;stroke:#7c0847;stroke-opacity:0.8;" x="113.812672" xlink:href="#m203acaf007" y="162.575364"/>
     <use style="fill:#7c0847;fill-opacity:0.8;stroke:#7c0847;stroke-opacity:0.8;" x="113.676668" xlink:href="#m203acaf007" y="199.646538"/>
     <use style="fill:#7c0847;fill-opacity:0.8;stroke:#7c0847;stroke-opacity:0.8;" x="126.203895" xlink:href="#m203acaf007" y="191.88103"/>
     <use style="fill:#7c0847;fill-opacity:0.8;stroke:#7c0847;stroke-opacity:0.8;" x="147.683946" xlink:href="#m203acaf007" y="232.928697"/>
     <use style="fill:#7c0847;fill-opacity:0.8;stroke:#7c0847;stroke-opacity:0.8;" x="152.946067" xlink:href="#m203acaf007" y="179.300314"/>
     <use style="fill:#7c0847;fill-opacity:0.8;stroke:#7c0847;stroke-opacity:0.8;" x="144.895916" xlink:href="#m203acaf007" y="174.416037"/>
     <use style="fill:#7c0847;fill-opacity:0.8;stroke:#7c0847;stroke-opacity:0.8;" x="147.020296" xlink:href="#m203acaf007" y="179.28058"/>
     <use style="fill:#7c0847;fill-opacity:0.8;stroke:#7c0847;stroke-opacity:0.8;" x="151.440011" xlink:href="#m203acaf007" y="196.913316"/>
     <use style="fill:#7c0847;fill-opacity:0.8;stroke:#7c0847;stroke-opacity:0.8;" x="154.644014" xlink:href="#m203acaf007" y="171.584142"/>
     <use style="fill:#7c0847;fill-opacity:0.8;stroke:#7c0847;stroke-opacity:0.8;" x="161.098965" xlink:href="#m203acaf007" y="177.711691"/>
     <use style="fill:#7c0847;fill-opacity:0.8;stroke:#7c0847;stroke-opacity:0.8;" x="164.844211" xlink:href="#m203acaf007" y="164.677083"/>
     <use style="fill:#7c0847;fill-opacity:0.8;stroke:#7c0847;stroke-opacity:0.8;" x="172.983293" xlink:href="#m203acaf007" y="217.525954"/>
     <use style="fill:#7c0847;fill-opacity:0.8;stroke:#7c0847;stroke-opacity:0.8;" x="177.830498" xlink:href="#m203acaf007" y="203.583562"/>
     <use style="fill:#7c0847;fill-opacity:0.8;stroke:#7c0847;stroke-opacity:0.8;" x="183.048122" xlink:href="#m203acaf007" y="195.068144"/>
     <use style="fill:#7c0847;fill-opacity:0.8;stroke:#7c0847;stroke-opacity:0.8;" x="184.022457" xlink:href="#m203acaf007" y="183.138666"/>
     <use style="fill:#7c0847;fill-opacity:0.8;stroke:#7c0847;stroke-opacity:0.8;" x="191.196107" xlink:href="#m203acaf007" y="204.895903"/>
     <use style="fill:#7c0847;fill-opacity:0.8;stroke:#7c0847;stroke-opacity:0.8;" x="202.718742" xlink:href="#m203acaf007" y="195.571373"/>
     <use style="fill:#7c0847;fill-opacity:0.8;stroke:#7c0847;stroke-opacity:0.8;" x="210.379952" xlink:href="#m203acaf007" y="183.039994"/>
     <use style="fill:#7c0847;fill-opacity:0.8;stroke:#7c0847;stroke-opacity:0.8;" x="214.911738" xlink:href="#m203acaf007" y="195.078011"/>
     <use style="fill:#7c0847;fill-opacity:0.8;stroke:#7c0847;stroke-opacity:0.8;" x="225.179763" xlink:href="#m203acaf007" y="206.879216"/>
     <use style="fill:#7c0847;fill-opacity:0.8;stroke:#7c0847;stroke-opacity:0.8;" x="238.281694" xlink:href="#m203acaf007" y="153.754062"/>
     <use style="fill:#7c0847;fill-opacity:0.8;stroke:#7c0847;stroke-opacity:0.8;" x="239.646315" xlink:href="#m203acaf007" y="210.678098"/>
     <use style="fill:#7c0847;fill-opacity:0.8;stroke:#7c0847;stroke-opacity:0.8;" x="222.460805" xlink:href="#m203acaf007" y="177.839965"/>
     <use style="fill:#7c0847;fill-opacity:0.8;stroke:#7c0847;stroke-opacity:0.8;" x="228.492814" xlink:href="#m203acaf007" y="224.916508"/>
     <use style="fill:#7c0847;fill-opacity:0.8;stroke:#7c0847;stroke-opacity:0.8;" x="232.530955" xlink:href="#m203acaf007" y="165.357922"/>
     <use style="fill:#7c0847;fill-opacity:0.8;stroke:#7c0847;stroke-opacity:0.8;" x="237.419175" xlink:href="#m203acaf007" y="184.006982"/>
     <use style="fill:#7c0847;fill-opacity:0.8;stroke:#7c0847;stroke-opacity:0.8;" x="245.689428" xlink:href="#m203acaf007" y="179.191775"/>
     <use style="fill:#7c0847;fill-opacity:0.8;stroke:#7c0847;stroke-opacity:0.8;" x="245.417527" xlink:href="#m203acaf007" y="149.955179"/>
     <use style="fill:#7c0847;fill-opacity:0.8;stroke:#7c0847;stroke-opacity:0.8;" x="244.199349" xlink:href="#m203acaf007" y="127.990731"/>
     <use style="fill:#7c0847;fill-opacity:0.8;stroke:#7c0847;stroke-opacity:0.8;" x="241.558539" xlink:href="#m203acaf007" y="190.351609"/>
     <use style="fill:#7c0847;fill-opacity:0.8;stroke:#7c0847;stroke-opacity:0.8;" x="242.681817" xlink:href="#m203acaf007" y="144.291391"/>
     <use style="fill:#7c0847;fill-opacity:0.8;stroke:#7c0847;stroke-opacity:0.8;" x="250.690059" xlink:href="#m203acaf007" y="184.115522"/>
     <use style="fill:#7c0847;fill-opacity:0.8;stroke:#7c0847;stroke-opacity:0.8;" x="249.431102" xlink:href="#m203acaf007" y="188.121616"/>
     <use style="fill:#7c0847;fill-opacity:0.8;stroke:#7c0847;stroke-opacity:0.8;" x="253.422782" xlink:href="#m203acaf007" y="167.331367"/>
     <use style="fill:#7c0847;fill-opacity:0.8;stroke:#7c0847;stroke-opacity:0.8;" x="258.261402" xlink:href="#m203acaf007" y="148.287618"/>
     <use style="fill:#7c0847;fill-opacity:0.8;stroke:#7c0847;stroke-opacity:0.8;" x="268.294734" xlink:href="#m203acaf007" y="123.75769"/>
     <use style="fill:#7c0847;fill-opacity:0.8;stroke:#7c0847;stroke-opacity:0.8;" x="273.598075" xlink:href="#m203acaf007" y="156.862239"/>
     <use style="fill:#7c0847;fill-opacity:0.8;stroke:#7c0847;stroke-opacity:0.8;" x="272.367822" xlink:href="#m203acaf007" y="119.899604"/>
     <use style="fill:#7c0847;fill-opacity:0.8;stroke:#7c0847;stroke-opacity:0.8;" x="265.931492" xlink:href="#m203acaf007" y="126.382373"/>
     <use style="fill:#7c0847;fill-opacity:0.8;stroke:#7c0847;stroke-opacity:0.8;" x="265.305842" xlink:href="#m203acaf007" y="166.976147"/>
     <use style="fill:#7c0847;fill-opacity:0.8;stroke:#7c0847;stroke-opacity:0.8;" x="266.367112" xlink:href="#m203acaf007" y="163.423945"/>
     <use style="fill:#7c0847;fill-opacity:0.8;stroke:#7c0847;stroke-opacity:0.8;" x="272.302067" xlink:href="#m203acaf007" y="143.038253"/>
     <use style="fill:#7c0847;fill-opacity:0.8;stroke:#7c0847;stroke-opacity:0.8;" x="278.751128" xlink:href="#m203acaf007" y="106.529511"/>
     <use style="fill:#7c0847;fill-opacity:0.8;stroke:#7c0847;stroke-opacity:0.8;" x="281.901059" xlink:href="#m203acaf007" y="143.018518"/>
     <use style="fill:#7c0847;fill-opacity:0.8;stroke:#7c0847;stroke-opacity:0.8;" x="291.275078" xlink:href="#m203acaf007" y="123.639283"/>
     <use style="fill:#7c0847;fill-opacity:0.8;stroke:#7c0847;stroke-opacity:0.8;" x="289.889525" xlink:href="#m203acaf007" y="85.739262"/>
     <use style="fill:#7c0847;fill-opacity:0.8;stroke:#7c0847;stroke-opacity:0.8;" x="293.568806" xlink:href="#m203acaf007" y="113.870728"/>
     <use style="fill:#7c0847;fill-opacity:0.8;stroke:#7c0847;stroke-opacity:0.8;" x="314.25352" xlink:href="#m203acaf007" y="123.807026"/>
     <use style="fill:#7c0847;fill-opacity:0.8;stroke:#7c0847;stroke-opacity:0.8;" x="316.813791" xlink:href="#m203acaf007" y="98.537056"/>
     <use style="fill:#7c0847;fill-opacity:0.8;stroke:#7c0847;stroke-opacity:0.8;" x="321.0805" xlink:href="#m203acaf007" y="80.085341"/>
     <use style="fill:#7c0847;fill-opacity:0.8;stroke:#7c0847;stroke-opacity:0.8;" x="326.433417" xlink:href="#m203acaf007" y="85.393909"/>
     <use style="fill:#7c0847;fill-opacity:0.8;stroke:#7c0847;stroke-opacity:0.8;" x="336.214496" xlink:href="#m203acaf007" y="109.193662"/>
     <use style="fill:#7c0847;fill-opacity:0.8;stroke:#7c0847;stroke-opacity:0.8;" x="343.964955" xlink:href="#m203acaf007" y="64.633262"/>
     <use style="fill:#7c0847;fill-opacity:0.8;stroke:#7c0847;stroke-opacity:0.8;" x="359.769758" xlink:href="#m203acaf007" y="84.574929"/>
     <use style="fill:#7c0847;fill-opacity:0.8;stroke:#7c0847;stroke-opacity:0.8;" x="373.448901" xlink:href="#m203acaf007" y="60.933052"/>
     <use style="fill:#7c0847;fill-opacity:0.8;stroke:#7c0847;stroke-opacity:0.8;" x="371.714591" xlink:href="#m203acaf007" y="96.504407"/>
     <use style="fill:#7c0847;fill-opacity:0.8;stroke:#7c0847;stroke-opacity:0.8;" x="335.122145" xlink:href="#m203acaf007" y="87.801513"/>
     <use style="fill:#7c0847;fill-opacity:0.8;stroke:#7c0847;stroke-opacity:0.8;" x="342.426604" xlink:href="#m203acaf007" y="64.376714"/>
     <use style="fill:#7c0847;fill-opacity:0.8;stroke:#7c0847;stroke-opacity:0.8;" x="349.006185" xlink:href="#m203acaf007" y="86.52864"/>
     <use style="fill:#7c0847;fill-opacity:0.8;stroke:#7c0847;stroke-opacity:0.8;" x="346.354698" xlink:href="#m203acaf007" y="87.554832"/>
     <use style="fill:#7c0847;fill-opacity:0.8;stroke:#7c0847;stroke-opacity:0.8;" x="345.976684" xlink:href="#m203acaf007" y="75.812831"/>
     <use style="fill:#7c0847;fill-opacity:0.8;stroke:#7c0847;stroke-opacity:0.8;" x="352.956625" xlink:href="#m203acaf007" y="80.055739"/>
     <use style="fill:#7c0847;fill-opacity:0.8;stroke:#7c0847;stroke-opacity:0.8;" x="359.402972" xlink:href="#m203acaf007" y="49.23052"/>
    </g>
   </g>
   <g id="PolyCollection_1">
    <defs>
     <path d="M 54 -78.508593 
L 54 -63.247378 
L 57.381818 -64.652032 
L 60.763636 -66.056686 
L 64.145455 -67.461658 
L 67.527273 -68.866032 
L 70.909091 -70.272808 
L 74.290909 -71.659968 
L 77.672727 -73.008432 
L 81.054545 -74.32134 
L 84.436364 -75.713383 
L 87.818182 -77.085243 
L 91.2 -78.487161 
L 94.581818 -79.915767 
L 97.963636 -81.417578 
L 101.345455 -82.800504 
L 104.727273 -84.182346 
L 108.109091 -85.577455 
L 111.490909 -86.945701 
L 114.872727 -88.343067 
L 118.254545 -89.730899 
L 121.636364 -91.098004 
L 125.018182 -92.473795 
L 128.4 -93.85232 
L 131.781818 -95.229426 
L 135.163636 -96.532969 
L 138.545455 -97.91612 
L 141.927273 -99.269153 
L 145.309091 -100.617204 
L 148.690909 -101.825867 
L 152.072727 -103.150957 
L 155.454545 -104.507218 
L 158.836364 -105.846305 
L 162.218182 -107.070252 
L 165.6 -108.342239 
L 168.981818 -109.630677 
L 172.363636 -110.833708 
L 175.745455 -112.105392 
L 179.127273 -113.339019 
L 182.509091 -114.48868 
L 185.890909 -115.783452 
L 189.272727 -116.948398 
L 192.654545 -118.108325 
L 196.036364 -119.288917 
L 199.418182 -120.449998 
L 202.8 -121.675566 
L 206.181818 -122.832281 
L 209.563636 -124.046311 
L 212.945455 -125.177618 
L 216.327273 -126.329112 
L 219.709091 -127.472653 
L 223.090909 -128.65141 
L 226.472727 -129.809164 
L 229.854545 -130.966919 
L 233.236364 -132.125122 
L 236.618182 -133.219898 
L 240 -134.379846 
L 243.381818 -135.541306 
L 246.763636 -136.702489 
L 250.145455 -137.862652 
L 253.527273 -139.02411 
L 256.909091 -140.195593 
L 260.290909 -141.326778 
L 263.672727 -142.45588 
L 267.054545 -143.58783 
L 270.436364 -144.720318 
L 273.818182 -145.814316 
L 277.2 -146.886994 
L 280.581818 -148.028337 
L 283.963636 -149.209793 
L 287.345455 -150.312973 
L 290.727273 -151.38617 
L 294.109091 -152.474892 
L 297.490909 -153.590707 
L 300.872727 -154.759139 
L 304.254545 -155.933418 
L 307.636364 -157.056847 
L 311.018182 -158.210678 
L 314.4 -159.344677 
L 317.781818 -160.446028 
L 321.163636 -161.547378 
L 324.545455 -162.648729 
L 327.927273 -163.750079 
L 331.309091 -164.85143 
L 334.690909 -165.95278 
L 338.072727 -167.054131 
L 341.454545 -168.155481 
L 344.836364 -169.249684 
L 348.218182 -170.31235 
L 351.6 -171.373135 
L 354.981818 -172.421011 
L 358.363636 -173.503586 
L 361.745455 -174.565009 
L 365.127273 -175.626432 
L 368.509091 -176.687855 
L 371.890909 -177.749278 
L 375.272727 -178.811543 
L 378.654545 -179.873972 
L 382.036364 -180.936401 
L 385.418182 -181.99883 
L 388.8 -183.068302 
L 388.8 -209.118264 
L 388.8 -209.118264 
L 385.418182 -207.710471 
L 382.036364 -206.302679 
L 378.654545 -204.894886 
L 375.272727 -203.487094 
L 371.890909 -202.079301 
L 368.509091 -200.671509 
L 365.127273 -199.265074 
L 361.745455 -197.853158 
L 358.363636 -196.393573 
L 354.981818 -194.998768 
L 351.6 -193.612812 
L 348.218182 -192.159825 
L 344.836364 -190.676015 
L 341.454545 -189.257681 
L 338.072727 -187.855943 
L 334.690909 -186.454204 
L 331.309091 -185.057232 
L 327.927273 -183.665454 
L 324.545455 -182.273677 
L 321.163636 -180.844881 
L 317.781818 -179.443557 
L 314.4 -178.042233 
L 311.018182 -176.662243 
L 307.636364 -175.239584 
L 304.254545 -173.83826 
L 300.872727 -172.436022 
L 297.490909 -171.033015 
L 294.109091 -169.600491 
L 290.727273 -168.212046 
L 287.345455 -166.831258 
L 283.963636 -165.461137 
L 280.581818 -164.089666 
L 277.2 -162.692603 
L 273.818182 -161.28547 
L 270.436364 -159.878819 
L 267.054545 -158.469559 
L 263.672727 -157.054127 
L 260.290909 -155.658949 
L 256.909091 -154.296355 
L 253.527273 -152.927383 
L 250.145455 -151.558788 
L 246.763636 -150.190388 
L 243.381818 -148.783029 
L 240 -147.388544 
L 236.618182 -145.946349 
L 233.236364 -144.583061 
L 229.854545 -143.226358 
L 226.472727 -141.848856 
L 223.090909 -140.461697 
L 219.709091 -139.177107 
L 216.327273 -137.870007 
L 212.945455 -136.507486 
L 209.563636 -135.143443 
L 206.181818 -133.764353 
L 202.8 -132.397653 
L 199.418182 -131.138383 
L 196.036364 -129.822185 
L 192.654545 -128.489773 
L 189.272727 -127.159324 
L 185.890909 -125.887132 
L 182.509091 -124.596871 
L 179.127273 -123.319029 
L 175.745455 -122.002514 
L 172.363636 -120.690926 
L 168.981818 -119.338218 
L 165.6 -118.068368 
L 162.218182 -116.865289 
L 158.836364 -115.547889 
L 155.454545 -114.258821 
L 152.072727 -112.997315 
L 148.690909 -111.714047 
L 145.309091 -110.444446 
L 141.927273 -109.153422 
L 138.545455 -107.910997 
L 135.163636 -106.669989 
L 131.781818 -105.443418 
L 128.4 -104.199054 
L 125.018182 -103.001794 
L 121.636364 -101.758668 
L 118.254545 -100.519026 
L 114.872727 -99.29706 
L 111.490909 -98.096584 
L 108.109091 -96.922728 
L 104.727273 -95.716146 
L 101.345455 -94.501509 
L 97.963636 -93.357564 
L 94.581818 -92.233968 
L 91.2 -91.133277 
L 87.818182 -89.929657 
L 84.436364 -88.782027 
L 81.054545 -87.632029 
L 77.672727 -86.50118 
L 74.290909 -85.361849 
L 70.909091 -84.180668 
L 67.527273 -83.070771 
L 64.145455 -81.957619 
L 60.763636 -80.788276 
L 57.381818 -79.642675 
L 54 -78.508593 
z
" id="me21b19f623" style="stroke:#ffffff;stroke-opacity:0.15;"/>
    </defs>
    <g clip-path="url(#paded319e90)">
     <use style="fill:#ec9241;fill-opacity:0.15;stroke:#ffffff;stroke-opacity:0.15;" x="0" xlink:href="#me21b19f623" y="288"/>
    </g>
   </g>
   <g id="line2d_13">
    <path clip-path="url(#paded319e90)" d="M 54 216.55024 
L 57.381818 215.269854 
L 60.763636 213.989468 
L 64.145455 212.709081 
L 67.527273 211.428695 
L 70.909091 210.148309 
L 74.290909 208.867923 
L 77.672727 207.587536 
L 81.054545 206.30715 
L 84.436364 205.026764 
L 87.818182 203.746378 
L 91.2 202.465992 
L 94.581818 201.185605 
L 97.963636 199.905219 
L 101.345455 198.624833 
L 104.727273 197.344447 
L 108.109091 196.064061 
L 111.490909 194.783674 
L 114.872727 193.503288 
L 118.254545 192.222902 
L 121.636364 190.942516 
L 125.018182 189.662129 
L 128.4 188.381743 
L 131.781818 187.101357 
L 135.163636 185.820971 
L 138.545455 184.540585 
L 141.927273 183.260198 
L 145.309091 181.979812 
L 148.690909 180.699426 
L 152.072727 179.41904 
L 155.454545 178.138654 
L 158.836364 176.858267 
L 162.218182 175.577881 
L 165.6 174.297495 
L 168.981818 173.017109 
L 172.363636 171.736723 
L 175.745455 170.456336 
L 179.127273 169.17595 
L 182.509091 167.895564 
L 185.890909 166.615178 
L 189.272727 165.334791 
L 192.654545 164.054405 
L 196.036364 162.774019 
L 199.418182 161.493633 
L 202.8 160.213247 
L 206.181818 158.93286 
L 209.563636 157.652474 
L 212.945455 156.372088 
L 216.327273 155.091702 
L 219.709091 153.811316 
L 223.090909 152.530929 
L 226.472727 151.250543 
L 229.854545 149.970157 
L 233.236364 148.689771 
L 236.618182 147.409384 
L 240 146.128998 
L 243.381818 144.848612 
L 246.763636 143.568226 
L 250.145455 142.28784 
L 253.527273 141.007453 
L 256.909091 139.727067 
L 260.290909 138.446681 
L 263.672727 137.166295 
L 267.054545 135.885909 
L 270.436364 134.605522 
L 273.818182 133.325136 
L 277.2 132.04475 
L 280.581818 130.764364 
L 283.963636 129.483978 
L 287.345455 128.203591 
L 290.727273 126.923205 
L 294.109091 125.642819 
L 297.490909 124.362433 
L 300.872727 123.082046 
L 304.254545 121.80166 
L 307.636364 120.521274 
L 311.018182 119.240888 
L 314.4 117.960502 
L 317.781818 116.680115 
L 321.163636 115.399729 
L 324.545455 114.119343 
L 327.927273 112.838957 
L 331.309091 111.558571 
L 334.690909 110.278184 
L 338.072727 108.997798 
L 341.454545 107.717412 
L 344.836364 106.437026 
L 348.218182 105.156639 
L 351.6 103.876253 
L 354.981818 102.595867 
L 358.363636 101.315481 
L 361.745455 100.035095 
L 365.127273 98.754708 
L 368.509091 97.474322 
L 371.890909 96.193936 
L 375.272727 94.91355 
L 378.654545 93.633164 
L 382.036364 92.352777 
L 385.418182 91.072391 
L 388.8 89.792005 
" style="fill:none;stroke:#ec9241;stroke-linecap:round;stroke-width:2.25;"/>
   </g>
   <g id="patch_3">
    <path d="M 54 252 
L 54 34.56 
" style="fill:none;stroke:#262626;stroke-linecap:square;stroke-linejoin:miter;stroke-width:1.25;"/>
   </g>
   <g id="patch_4">
    <path d="M 388.8 252 
L 388.8 34.56 
" style="fill:none;stroke:#262626;stroke-linecap:square;stroke-linejoin:miter;stroke-width:1.25;"/>
   </g>
   <g id="patch_5">
    <path d="M 54 252 
L 388.8 252 
" style="fill:none;stroke:#262626;stroke-linecap:square;stroke-linejoin:miter;stroke-width:1.25;"/>
   </g>
   <g id="patch_6">
    <path d="M 54 34.56 
L 388.8 34.56 
" style="fill:none;stroke:#262626;stroke-linecap:square;stroke-linejoin:miter;stroke-width:1.25;"/>
   </g>
   <g id="text_15">
    <g id="patch_7">
     <path d="M 57.938714 51.21826 
L 202.130902 51.21826 
Q 205.130902 51.21826 205.130902 48.21826 
L 205.130902 39.08701 
Q 205.130902 36.08701 202.130902 36.08701 
L 57.938714 36.08701 
Q 54.938714 36.08701 54.938714 39.08701 
L 54.938714 48.21826 
Q 54.938714 51.21826 57.938714 51.21826 
z
" style="fill:#fdf3c5;opacity:0.4;stroke:#ffffff;stroke-linejoin:miter;"/>
    </g>
    <!-- Correlation Coefficient = 0.811 -->
    <defs>
     <path d="M 53.078125 26.3125 
L 67.09375 21.875 
Q 63.875 10.15625 56.375 4.46875 
Q 48.875 -1.21875 37.359375 -1.21875 
Q 23.09375 -1.21875 13.90625 8.515625 
Q 4.734375 18.265625 4.734375 35.15625 
Q 4.734375 53.03125 13.953125 62.90625 
Q 23.1875 72.796875 38.234375 72.796875 
Q 51.375 72.796875 59.578125 65.046875 
Q 64.453125 60.453125 66.890625 51.859375 
L 52.59375 48.4375 
Q 51.3125 54 47.28125 57.21875 
Q 43.265625 60.453125 37.5 60.453125 
Q 29.546875 60.453125 24.578125 54.734375 
Q 19.625 49.03125 19.625 36.234375 
Q 19.625 22.65625 24.5 16.890625 
Q 29.390625 11.140625 37.203125 11.140625 
Q 42.96875 11.140625 47.109375 14.796875 
Q 51.265625 18.453125 53.078125 26.3125 
z
" id="Arial-BoldMT-67"/>
     <path d="M 4 26.65625 
Q 4 33.5 7.375 39.890625 
Q 10.75 46.296875 16.921875 49.65625 
Q 23.09375 53.03125 30.71875 53.03125 
Q 42.484375 53.03125 50 45.390625 
Q 57.515625 37.75 57.515625 26.078125 
Q 57.515625 14.3125 49.921875 6.5625 
Q 42.328125 -1.171875 30.8125 -1.171875 
Q 23.6875 -1.171875 17.21875 2.046875 
Q 10.75 5.28125 7.375 11.5 
Q 4 17.71875 4 26.65625 
z
M 18.0625 25.921875 
Q 18.0625 18.21875 21.71875 14.109375 
Q 25.390625 10.015625 30.765625 10.015625 
Q 36.140625 10.015625 39.765625 14.109375 
Q 43.40625 18.21875 43.40625 26.03125 
Q 43.40625 33.640625 39.765625 37.734375 
Q 36.140625 41.84375 30.765625 41.84375 
Q 25.390625 41.84375 21.71875 37.734375 
Q 18.0625 33.640625 18.0625 25.921875 
z
" id="Arial-BoldMT-111"/>
     <path d="M 1.171875 51.859375 
L 8.796875 51.859375 
L 8.796875 55.765625 
Q 8.796875 62.3125 10.1875 65.53125 
Q 11.578125 68.75 15.3125 70.765625 
Q 19.046875 72.796875 24.75 72.796875 
Q 30.609375 72.796875 36.234375 71.046875 
L 34.375 61.46875 
Q 31.109375 62.25 28.078125 62.25 
Q 25.09375 62.25 23.796875 60.859375 
Q 22.515625 59.46875 22.515625 55.515625 
L 22.515625 51.859375 
L 32.765625 51.859375 
L 32.765625 41.0625 
L 22.515625 41.0625 
L 22.515625 0 
L 8.796875 0 
L 8.796875 41.0625 
L 1.171875 41.0625 
z
" id="Arial-BoldMT-102"/>
     <path d="M 52.390625 36.53125 
L 38.875 34.078125 
Q 38.1875 38.140625 35.765625 40.1875 
Q 33.34375 42.234375 29.5 42.234375 
Q 24.359375 42.234375 21.3125 38.6875 
Q 18.265625 35.15625 18.265625 26.859375 
Q 18.265625 17.625 21.359375 13.8125 
Q 24.46875 10.015625 29.6875 10.015625 
Q 33.59375 10.015625 36.078125 12.234375 
Q 38.578125 14.453125 39.59375 19.875 
L 53.078125 17.578125 
Q 50.984375 8.296875 45.015625 3.5625 
Q 39.0625 -1.171875 29.046875 -1.171875 
Q 17.671875 -1.171875 10.90625 6 
Q 4.15625 13.1875 4.15625 25.875 
Q 4.15625 38.71875 10.9375 45.875 
Q 17.71875 53.03125 29.296875 53.03125 
Q 38.765625 53.03125 44.359375 48.953125 
Q 49.953125 44.875 52.390625 36.53125 
z
" id="Arial-BoldMT-99"/>
     <path d="M 4.15625 39.84375 
L 4.15625 52.4375 
L 54.203125 52.4375 
L 54.203125 39.84375 
z
M 4.15625 18.171875 
L 4.15625 30.8125 
L 54.203125 30.8125 
L 54.203125 18.171875 
z
" id="Arial-BoldMT-61"/>
    </defs>
    <g style="fill:#262626;" transform="translate(57.938714 46.244822)scale(0.1 -0.1)">
     <use xlink:href="#Arial-BoldMT-67"/>
     <use x="72.216797" xlink:href="#Arial-BoldMT-111"/>
     <use x="133.300781" xlink:href="#Arial-BoldMT-114"/>
     <use x="172.216797" xlink:href="#Arial-BoldMT-114"/>
     <use x="211.132812" xlink:href="#Arial-BoldMT-101"/>
     <use x="266.748047" xlink:href="#Arial-BoldMT-108"/>
     <use x="294.53125" xlink:href="#Arial-BoldMT-97"/>
     <use x="350.146484" xlink:href="#Arial-BoldMT-116"/>
     <use x="383.447266" xlink:href="#Arial-BoldMT-105"/>
     <use x="411.230469" xlink:href="#Arial-BoldMT-111"/>
     <use x="472.314453" xlink:href="#Arial-BoldMT-110"/>
     <use x="533.398438" xlink:href="#Arial-BoldMT-32"/>
     <use x="561.181641" xlink:href="#Arial-BoldMT-67"/>
     <use x="633.398438" xlink:href="#Arial-BoldMT-111"/>
     <use x="694.482422" xlink:href="#Arial-BoldMT-101"/>
     <use x="750.097656" xlink:href="#Arial-BoldMT-102"/>
     <use x="783.398438" xlink:href="#Arial-BoldMT-102"/>
     <use x="816.699219" xlink:href="#Arial-BoldMT-105"/>
     <use x="844.482422" xlink:href="#Arial-BoldMT-99"/>
     <use x="900.097656" xlink:href="#Arial-BoldMT-105"/>
     <use x="927.880859" xlink:href="#Arial-BoldMT-101"/>
     <use x="983.496094" xlink:href="#Arial-BoldMT-110"/>
     <use x="1044.580078" xlink:href="#Arial-BoldMT-116"/>
     <use x="1077.880859" xlink:href="#Arial-BoldMT-32"/>
     <use x="1105.664062" xlink:href="#Arial-BoldMT-61"/>
     <use x="1164.0625" xlink:href="#Arial-BoldMT-32"/>
     <use x="1191.845703" xlink:href="#Arial-BoldMT-48"/>
     <use x="1247.460938" xlink:href="#Arial-BoldMT-46"/>
     <use x="1275.244141" xlink:href="#Arial-BoldMT-56"/>
     <use x="1330.859375" xlink:href="#Arial-BoldMT-49"/>
     <use x="1386.396484" xlink:href="#Arial-BoldMT-49"/>
    </g>
   </g>
   <g id="text_16">
    <!-- Yearly Average Temperature as Yearly Industrial Output Changes -->
    <defs>
     <path d="M 26.078125 0 
L 26.078125 30.125 
L -0.140625 71.578125 
L 16.796875 71.578125 
L 33.640625 43.265625 
L 50.140625 71.578125 
L 66.796875 71.578125 
L 40.484375 30.03125 
L 40.484375 0 
z
" id="Arial-BoldMT-89"/>
     <path d="M 0.6875 51.859375 
L 15.28125 51.859375 
L 27.6875 15.046875 
L 39.796875 51.859375 
L 54 51.859375 
L 35.6875 1.953125 
L 32.421875 -7.078125 
Q 30.609375 -11.625 28.96875 -14.015625 
Q 27.34375 -16.40625 25.21875 -17.890625 
Q 23.09375 -19.390625 19.984375 -20.21875 
Q 16.890625 -21.046875 12.984375 -21.046875 
Q 9.03125 -21.046875 5.21875 -20.21875 
L 4 -9.46875 
Q 7.234375 -10.109375 9.8125 -10.109375 
Q 14.59375 -10.109375 16.890625 -7.296875 
Q 19.1875 -4.5 20.40625 -0.140625 
z
" id="Arial-BoldMT-121"/>
     <path d="M 20.84375 71.578125 
L 20.84375 45.265625 
Q 27.484375 53.03125 36.71875 53.03125 
Q 41.453125 53.03125 45.265625 51.265625 
Q 49.078125 49.515625 51 46.78125 
Q 52.9375 44.046875 53.640625 40.71875 
Q 54.34375 37.40625 54.34375 30.421875 
L 54.34375 0 
L 40.625 0 
L 40.625 27.390625 
Q 40.625 35.546875 39.84375 37.734375 
Q 39.0625 39.9375 37.078125 41.234375 
Q 35.109375 42.53125 32.125 42.53125 
Q 28.71875 42.53125 26.03125 40.859375 
Q 23.34375 39.203125 22.09375 35.859375 
Q 20.84375 32.515625 20.84375 25.984375 
L 20.84375 0 
L 7.125 0 
L 7.125 71.578125 
z
" id="Arial-BoldMT-104"/>
    </defs>
    <g style="fill:#7c0847;" transform="translate(35.035313 28.56)scale(0.12 -0.12)">
     <use xlink:href="#Arial-BoldMT-89"/>
     <use x="66.621094" xlink:href="#Arial-BoldMT-101"/>
     <use x="122.236328" xlink:href="#Arial-BoldMT-97"/>
     <use x="177.851562" xlink:href="#Arial-BoldMT-114"/>
     <use x="216.767578" xlink:href="#Arial-BoldMT-108"/>
     <use x="244.550781" xlink:href="#Arial-BoldMT-121"/>
     <use x="300.166016" xlink:href="#Arial-BoldMT-32"/>
     <use x="327.902344" xlink:href="#Arial-BoldMT-65"/>
     <use x="400.072266" xlink:href="#Arial-BoldMT-118"/>
     <use x="455.6875" xlink:href="#Arial-BoldMT-101"/>
     <use x="511.302734" xlink:href="#Arial-BoldMT-114"/>
     <use x="550.21875" xlink:href="#Arial-BoldMT-97"/>
     <use x="605.833984" xlink:href="#Arial-BoldMT-103"/>
     <use x="666.917969" xlink:href="#Arial-BoldMT-101"/>
     <use x="722.533203" xlink:href="#Arial-BoldMT-32"/>
     <use x="750.316406" xlink:href="#Arial-BoldMT-84"/>
     <use x="811.291016" xlink:href="#Arial-BoldMT-101"/>
     <use x="866.90625" xlink:href="#Arial-BoldMT-109"/>
     <use x="955.822266" xlink:href="#Arial-BoldMT-112"/>
     <use x="1016.90625" xlink:href="#Arial-BoldMT-101"/>
     <use x="1072.521484" xlink:href="#Arial-BoldMT-114"/>
     <use x="1111.4375" xlink:href="#Arial-BoldMT-97"/>
     <use x="1167.052734" xlink:href="#Arial-BoldMT-116"/>
     <use x="1200.353516" xlink:href="#Arial-BoldMT-117"/>
     <use x="1261.4375" xlink:href="#Arial-BoldMT-114"/>
     <use x="1300.353516" xlink:href="#Arial-BoldMT-101"/>
     <use x="1355.96875" xlink:href="#Arial-BoldMT-32"/>
     <use x="1383.751953" xlink:href="#Arial-BoldMT-97"/>
     <use x="1439.367188" xlink:href="#Arial-BoldMT-115"/>
     <use x="1494.982422" xlink:href="#Arial-BoldMT-32"/>
     <use x="1522.75" xlink:href="#Arial-BoldMT-89"/>
     <use x="1589.371094" xlink:href="#Arial-BoldMT-101"/>
     <use x="1644.986328" xlink:href="#Arial-BoldMT-97"/>
     <use x="1700.601562" xlink:href="#Arial-BoldMT-114"/>
     <use x="1739.517578" xlink:href="#Arial-BoldMT-108"/>
     <use x="1767.300781" xlink:href="#Arial-BoldMT-121"/>
     <use x="1822.916016" xlink:href="#Arial-BoldMT-32"/>
     <use x="1850.699219" xlink:href="#Arial-BoldMT-73"/>
     <use x="1878.482422" xlink:href="#Arial-BoldMT-110"/>
     <use x="1939.566406" xlink:href="#Arial-BoldMT-100"/>
     <use x="2000.650391" xlink:href="#Arial-BoldMT-117"/>
     <use x="2061.734375" xlink:href="#Arial-BoldMT-115"/>
     <use x="2117.349609" xlink:href="#Arial-BoldMT-116"/>
     <use x="2150.650391" xlink:href="#Arial-BoldMT-114"/>
     <use x="2189.566406" xlink:href="#Arial-BoldMT-105"/>
     <use x="2217.349609" xlink:href="#Arial-BoldMT-97"/>
     <use x="2272.964844" xlink:href="#Arial-BoldMT-108"/>
     <use x="2300.748047" xlink:href="#Arial-BoldMT-32"/>
     <use x="2328.53125" xlink:href="#Arial-BoldMT-79"/>
     <use x="2406.314453" xlink:href="#Arial-BoldMT-117"/>
     <use x="2467.398438" xlink:href="#Arial-BoldMT-116"/>
     <use x="2500.699219" xlink:href="#Arial-BoldMT-112"/>
     <use x="2561.783203" xlink:href="#Arial-BoldMT-117"/>
     <use x="2622.867188" xlink:href="#Arial-BoldMT-116"/>
     <use x="2656.167969" xlink:href="#Arial-BoldMT-32"/>
     <use x="2683.951172" xlink:href="#Arial-BoldMT-67"/>
     <use x="2756.167969" xlink:href="#Arial-BoldMT-104"/>
     <use x="2817.251953" xlink:href="#Arial-BoldMT-97"/>
     <use x="2872.867188" xlink:href="#Arial-BoldMT-110"/>
     <use x="2933.951172" xlink:href="#Arial-BoldMT-103"/>
     <use x="2995.035156" xlink:href="#Arial-BoldMT-101"/>
     <use x="3050.650391" xlink:href="#Arial-BoldMT-115"/>
    </g>
   </g>
  </g>
 </g>
 <defs>
  <clipPath id="paded319e90">
   <rect height="217.44" width="334.8" x="54" y="34.56"/>
  </clipPath>
 </defs>
</svg>
